<svg width="48" height="48" viewBox="0 0 48 48" fill="none" xmlns="http://www.w3.org/2000/svg">
<rect width="48" height="48" rx="24" fill="#31C5D9" fill-opacity="0.2"/>
<path d="M29.504 19.501H19.5V29.504H29.503L29.504 19.501Z" fill="#31C5D9"/>
<path d="M33.505 17.5V15.5H31.505V13.5H29.504V15.5H27.504V13.5H25.503V15.5H23.503V13.5H21.501V15.5H19.501V13.5H17.5V15.5H15.5V17.5H13.5V19.501H15.5V21.501H13.5V23.502H15.5V25.502H13.5V27.503H15.5V29.503H13.5V31.504H15.5V33.504H17.5V35.505H19.501V33.505H21.501V35.505H23.502V33.505H25.502V35.505H27.503V33.505H29.503V35.505H31.504V33.505H33.504V31.505H35.505V29.504H33.505V27.504H35.505V25.503H33.505V23.503H35.505V21.501H33.505V19.501H35.505V17.5H33.505ZM31.505 31.504H17.5V17.501H31.503L31.505 31.504Z" fill="#31C5D9"/>
</svg>
