<svg width="48" height="48" viewBox="0 0 48 48" fill="none" xmlns="http://www.w3.org/2000/svg">
<rect width="48" height="48" rx="24" fill="#31C5D9" fill-opacity="0.2"/>
<path fill-rule="evenodd" clip-rule="evenodd" d="M15.2252 24.5497C15.0476 24.3643 14.9082 24.1458 14.815 23.9066C14.7218 23.6674 14.6766 23.4122 14.6821 23.1556C14.6875 22.8989 14.7435 22.6458 14.8467 22.4108C14.95 22.1758 15.0985 21.9634 15.2838 21.7857C15.4692 21.6081 15.6877 21.4687 15.9269 21.3755C16.1661 21.2823 16.4213 21.2372 16.6779 21.2426C16.9346 21.2481 17.1877 21.304 17.4227 21.4073C17.6577 21.5105 17.8701 21.659 18.0478 21.8444L21.6522 25.6078C21.7114 25.6696 21.7579 25.7424 21.7889 25.8221C21.82 25.9019 21.8351 25.987 21.8332 26.0725C21.8314 26.1581 21.8128 26.2424 21.7784 26.3208C21.7439 26.3991 21.6944 26.4699 21.6327 26.5291C21.5709 26.5883 21.498 26.6348 21.4183 26.6658C21.3386 26.6969 21.2535 26.712 21.168 26.7101C21.0824 26.7083 20.998 26.6897 20.9197 26.6553C20.8414 26.6209 20.7706 26.5713 20.7113 26.5096L17.1069 22.7461C16.9873 22.6214 16.8231 22.5492 16.6503 22.5456C16.4775 22.5419 16.3104 22.607 16.1856 22.7266C16.0608 22.8462 15.9887 23.0104 15.985 23.1832C15.9813 23.356 16.0465 23.5231 16.166 23.6479L19.7718 27.4113C19.8914 27.5361 19.9565 27.7033 19.9528 27.876C19.9492 28.0488 19.877 28.2131 19.7522 28.3326C19.6275 28.4522 19.4603 28.5173 19.2875 28.5137C19.1148 28.51 18.9505 28.4379 18.8309 28.3131L15.2252 24.5497Z" fill="#31C5D9"/>
<path fill-rule="evenodd" clip-rule="evenodd" d="M16.206 21.8053C16.0231 21.621 15.8788 21.4022 15.7814 21.1616C15.684 20.9209 15.6356 20.6633 15.6388 20.4037C15.6421 20.1441 15.697 19.8878 15.8005 19.6497C15.9039 19.4115 16.0537 19.1964 16.2412 19.0168C16.4286 18.8372 16.65 18.6968 16.8923 18.6037C17.1346 18.5106 17.3931 18.4667 17.6526 18.4745C17.9121 18.4824 18.1674 18.5419 18.4036 18.6495C18.6399 18.7571 18.8523 18.9107 19.0286 19.1013L22.6343 22.8647C22.7539 22.9895 22.819 23.1567 22.8154 23.3294C22.8117 23.5022 22.7395 23.6665 22.6148 23.786C22.49 23.9056 22.3229 23.9707 22.1501 23.9671C21.9773 23.9634 21.813 23.8913 21.6935 23.7665L18.0877 20.0018C17.9681 19.877 17.8039 19.8049 17.6311 19.8012C17.4583 19.7975 17.2912 19.8626 17.1664 19.9822C17.0416 20.1018 16.9695 20.266 16.9658 20.4388C16.9622 20.6116 17.0273 20.7788 17.1469 20.9035L20.7526 24.667C20.8722 24.7917 20.9373 24.9589 20.9336 25.1317C20.93 25.3044 20.8578 25.4687 20.7331 25.5883C20.6083 25.7078 20.4411 25.773 20.2684 25.7693C20.0956 25.7656 19.9313 25.6935 19.8118 25.5687L16.206 21.8053Z" fill="#31C5D9"/>
<path fill-rule="evenodd" clip-rule="evenodd" d="M18.9892 20.943C18.8033 20.7594 18.6562 20.5403 18.5564 20.2989C18.4566 20.0574 18.4062 19.7984 18.4083 19.5371C18.4103 19.2759 18.4647 19.0177 18.5682 18.7778C18.6717 18.5379 18.8223 18.3212 19.011 18.1405C19.1997 17.9598 19.4228 17.8188 19.6669 17.7258C19.9111 17.6327 20.1714 17.5896 20.4325 17.5989C20.6936 17.6082 20.9502 17.6697 21.1871 17.7799C21.424 17.8901 21.6364 18.0466 21.8118 18.2403L25.8723 22.4767C25.9315 22.5386 25.978 22.6115 26.009 22.6913C26.04 22.7712 26.055 22.8563 26.0532 22.9419C26.0513 23.0275 26.0326 23.1119 25.9981 23.1903C25.9636 23.2687 25.914 23.3395 25.8521 23.3987C25.7903 23.4579 25.7173 23.5044 25.6375 23.5354C25.5577 23.5664 25.4726 23.5814 25.387 23.5796C25.3014 23.5777 25.2169 23.559 25.1386 23.5245C25.0602 23.49 24.9894 23.4404 24.9302 23.3785L20.8709 19.1407C20.8117 19.079 20.7409 19.0295 20.6626 18.995C20.5842 18.9606 20.4999 18.942 20.4143 18.9402C20.2415 18.9365 20.0744 19.0016 19.9496 19.1212C19.8249 19.2408 19.7527 19.405 19.749 19.5778C19.7454 19.7506 19.8105 19.9177 19.9301 20.0425L23.5358 23.8046C23.5985 23.8657 23.6482 23.9387 23.6821 24.0194C23.7159 24.1001 23.7332 24.1868 23.7328 24.2742C23.7324 24.3617 23.7144 24.4483 23.6799 24.5286C23.6453 24.609 23.5949 24.6816 23.5317 24.7421C23.4685 24.8026 23.3938 24.8498 23.312 24.8807C23.2301 24.9117 23.1429 24.9259 23.0555 24.9225C22.9681 24.919 22.8822 24.898 22.8031 24.8606C22.724 24.8233 22.6532 24.7704 22.595 24.7051L18.9892 20.943Z" fill="#31C5D9"/>
<path fill-rule="evenodd" clip-rule="evenodd" d="M24.3108 20.6797C24.2073 20.1801 24.2912 19.6598 24.5466 19.218C24.8019 18.7763 25.2109 18.4438 25.6955 18.2841C26.1801 18.1244 26.7066 18.1485 27.1745 18.3519C27.6425 18.5553 28.0193 18.9238 28.2332 19.387L29.2105 21.5111C29.2462 21.589 29.2662 21.6731 29.2694 21.7587C29.2725 21.8443 29.2588 21.9297 29.229 22.01C29.1992 22.0903 29.1538 22.1639 29.0955 22.2267C29.0373 22.2894 28.9672 22.3401 28.8893 22.3758C28.8115 22.4114 28.7273 22.4314 28.6417 22.4346C28.5561 22.4378 28.4708 22.4241 28.3905 22.3942C28.3102 22.3644 28.2366 22.319 28.1738 22.2608C28.111 22.2025 28.0604 22.1324 28.0247 22.0545L27.05 19.9291C26.9712 19.7546 26.8307 19.6154 26.6554 19.5384C26.4802 19.4613 26.2826 19.4517 26.1008 19.5116C25.9189 19.5715 25.7657 19.6965 25.6705 19.8626C25.5753 20.0287 25.5449 20.2241 25.5852 20.4113L26.1013 22.8768C26.1365 23.046 26.1031 23.2222 26.0084 23.3668C25.9137 23.5113 25.7655 23.6124 25.5963 23.6476C25.4271 23.6829 25.2509 23.6495 25.1063 23.5548C24.9618 23.4601 24.8608 23.3118 24.8255 23.1427L24.3108 20.6797Z" fill="#31C5D9"/>
<path fill-rule="evenodd" clip-rule="evenodd" d="M17.0868 29.3169C17.1486 29.2577 17.2214 29.2112 17.3011 29.1801C17.3809 29.1491 17.4659 29.134 17.5515 29.1358C17.637 29.1377 17.7214 29.1563 17.7997 29.1907C17.8781 29.2251 17.9489 29.2747 18.0081 29.3364L21.1499 32.6151C21.6165 33.1012 22.1768 33.4882 22.7971 33.7527L22.8414 33.7723C23.4608 34.0365 24.1287 34.168 24.802 34.1583C25.4753 34.1487 26.1392 33.9981 26.7508 33.7162L26.9319 33.6328C27.5835 33.3331 28.179 32.9292 28.695 32.434L28.8605 32.2737C29.5554 31.6081 30.0356 30.7501 30.2395 29.8098C30.4433 28.8694 30.3616 27.8896 30.0047 26.996L28.02 22.0311C27.9882 21.9516 27.9723 21.8667 27.9733 21.781C27.9743 21.6954 27.9922 21.6108 28.0259 21.5321C28.0596 21.4534 28.1085 21.3821 28.1697 21.3223C28.231 21.2624 28.3034 21.2153 28.3829 21.1834C28.4624 21.1516 28.5474 21.1358 28.633 21.1368C28.7186 21.1378 28.8032 21.1556 28.8819 21.1893C28.9606 21.223 29.032 21.2719 29.0918 21.3332C29.1516 21.3944 29.1988 21.4669 29.2306 21.5464L31.214 26.5113C31.6667 27.6462 31.7704 28.8904 31.5118 30.0846C31.2532 31.2788 30.644 32.3686 29.7623 33.2145L29.5968 33.3735C28.9744 33.9683 28.258 34.4561 27.4766 34.8174L27.2955 34.9008C26.5187 35.2585 25.6756 35.4496 24.8205 35.4617C23.9654 35.4738 23.1172 35.3067 22.3306 34.9712L22.2863 34.9516C21.5035 34.6195 20.7968 34.1313 20.2091 33.5169L17.0685 30.2382C17.0092 30.1765 16.9627 30.1038 16.9315 30.0241C16.9003 29.9444 16.8852 29.8593 16.8868 29.7738C16.8885 29.6882 16.9071 29.6038 16.9414 29.5254C16.9757 29.4471 17.0251 29.3762 17.0868 29.3169Z" fill="#31C5D9"/>
<path fill-rule="evenodd" clip-rule="evenodd" d="M15.1471 28.2348C14.7883 27.8605 14.593 27.3591 14.604 26.8407C14.615 26.3224 14.8314 25.8296 15.2057 25.4709C15.58 25.1122 16.0815 24.9168 16.5998 24.9278C17.1182 24.9388 17.6109 25.1552 17.9696 25.5295L19.7732 27.4113C19.8927 27.536 19.9579 27.7032 19.9542 27.876C19.9505 28.0487 19.8784 28.213 19.7536 28.3326C19.6288 28.4521 19.4617 28.5173 19.2889 28.5136C19.1161 28.5099 18.9519 28.4378 18.8323 28.313L17.0288 26.4313C16.9696 26.3695 16.8988 26.32 16.8204 26.2856C16.7421 26.2512 16.6577 26.2325 16.5722 26.2307C16.4866 26.2289 16.4015 26.244 16.3218 26.275C16.2421 26.3061 16.1692 26.3525 16.1075 26.4118C16.0457 26.471 15.9962 26.5418 15.9618 26.6201C15.9273 26.6985 15.9087 26.7828 15.9069 26.8684C15.9051 26.9539 15.9201 27.039 15.9512 27.1187C15.9822 27.1985 16.0287 27.2713 16.0879 27.3331L19.695 31.0965C19.7542 31.1583 19.8006 31.2311 19.8317 31.3108C19.8628 31.3906 19.8778 31.4756 19.876 31.5612C19.8742 31.6467 19.8555 31.7311 19.8211 31.8094C19.7867 31.8878 19.7372 31.9586 19.6754 32.0178C19.6136 32.077 19.5408 32.1235 19.4611 32.1545C19.3813 32.1856 19.2963 32.2007 19.2107 32.1988C19.1252 32.197 19.0408 32.1784 18.9625 32.144C18.8841 32.1095 18.8133 32.06 18.7541 31.9983L15.1471 28.2348ZM21.7761 20.0773C21.5932 19.893 21.4488 19.6742 21.3515 19.4335C21.2541 19.1929 21.2056 18.9352 21.2089 18.6757C21.2122 18.4161 21.2671 18.1597 21.3705 17.9216C21.4739 17.6835 21.6237 17.4684 21.8112 17.2888C21.9987 17.1092 22.22 16.9688 22.4624 16.8756C22.7047 16.7825 22.9632 16.7386 23.2226 16.7465C23.4821 16.7544 23.7374 16.8138 23.9737 16.9215C24.2099 17.0291 24.4224 17.1827 24.5986 17.3733L25.2293 18.0327C25.292 18.0937 25.3418 18.1667 25.3756 18.2474C25.4094 18.3281 25.4267 18.4148 25.4263 18.5023C25.4259 18.5898 25.4079 18.6763 25.3734 18.7567C25.3388 18.8371 25.2885 18.9097 25.2253 18.9702C25.162 19.0306 25.0873 19.0778 25.0055 19.1088C24.9237 19.1398 24.8364 19.1539 24.749 19.1505C24.6616 19.147 24.5758 19.126 24.4966 19.0887C24.4175 19.0513 24.3467 18.9984 24.2885 18.9331L23.6578 18.275C23.5382 18.1503 23.3739 18.0781 23.2012 18.0745C23.0284 18.0708 22.8612 18.1359 22.7365 18.2555C22.6117 18.3751 22.5395 18.5393 22.5359 18.7121C22.5322 18.8849 22.5973 19.052 22.7169 19.1768L24.5191 21.0585C24.6387 21.1833 24.7038 21.3504 24.7002 21.5232C24.6965 21.696 24.6244 21.8602 24.4996 21.9798C24.3748 22.0994 24.2077 22.1645 24.0349 22.1609C23.8621 22.1572 23.6979 22.085 23.5783 21.9603L21.7761 20.0773ZM27.2948 19.9509C27.1196 19.467 27.1381 18.9343 27.3465 18.4638C27.5548 17.9933 27.9369 17.6215 28.4129 17.4261C28.8889 17.2306 29.422 17.2266 29.9008 17.415C30.3797 17.6033 30.7673 17.9693 30.9826 18.4366L31.9978 20.648C32.0335 20.7259 32.0534 20.81 32.0566 20.8956C32.0598 20.9812 32.0461 21.0666 32.0162 21.1469C31.9864 21.2272 31.9411 21.3008 31.8828 21.3635C31.8245 21.4263 31.7544 21.477 31.6766 21.5127C31.5987 21.5483 31.5146 21.5683 31.429 21.5715C31.3434 21.5747 31.258 21.5609 31.1777 21.5311C31.0974 21.5013 31.0238 21.4559 30.961 21.3977C30.8983 21.3394 30.8476 21.2693 30.8119 21.1914L29.7981 18.98C29.7223 18.8198 29.5878 18.6948 29.4225 18.6308C29.2572 18.5668 29.0737 18.5686 28.9097 18.636C28.7457 18.7033 28.6139 18.8311 28.5413 18.9928C28.4688 19.1545 28.461 19.3379 28.5197 19.5052L29.3172 21.6984C29.3763 21.8608 29.3685 22.0401 29.2954 22.1967C29.2224 22.3534 29.09 22.4746 28.9276 22.5337C28.7652 22.5928 28.5859 22.5849 28.4293 22.5118C28.2726 22.4388 28.1514 22.3065 28.0923 22.144L27.2948 19.9509Z" fill="#31C5D9"/>
<path fill-rule="evenodd" clip-rule="evenodd" d="M31.1669 20.3185C31.3273 20.2542 31.5066 20.2563 31.6654 20.3242C31.8243 20.3922 31.9496 20.5204 32.014 20.6807L33.9973 25.6457C34.4503 26.7807 34.5542 28.0252 34.2956 29.2197C34.0369 30.4141 33.4276 31.5042 32.5456 32.3502L32.414 32.4766C31.7696 33.0926 31.0276 33.5976 30.2183 33.9713L30.0593 34.0443C29.6308 34.2407 29.189 34.4037 28.7353 34.5317L27.2315 34.9565C27.1491 34.9797 27.0629 34.9864 26.9779 34.9763C26.8929 34.9662 26.8108 34.9394 26.7361 34.8976C26.6614 34.8557 26.5957 34.7995 26.5428 34.7323C26.4898 34.665 26.4506 34.588 26.4275 34.5056C26.4043 34.4232 26.3975 34.337 26.4076 34.252C26.4178 34.167 26.4445 34.0849 26.4864 34.0102C26.5282 33.9355 26.5844 33.8699 26.6517 33.8169C26.7189 33.764 26.7959 33.7248 26.8783 33.7016L28.3808 33.2781C28.7709 33.1686 29.1488 33.0296 29.5146 32.8611L29.6735 32.7868C30.3512 32.4739 30.9724 32.0512 31.5123 31.5358L31.6452 31.4094C32.3394 30.7431 32.8189 29.8848 33.0225 28.9444C33.2261 28.0039 33.1445 27.0242 32.788 26.1304L30.8034 21.1655C30.7716 21.086 30.7558 21.0011 30.7569 20.9155C30.7579 20.8299 30.7759 20.7453 30.8096 20.6667C30.8434 20.588 30.8923 20.5168 30.9536 20.457C31.0149 20.3973 31.0874 20.3502 31.1669 20.3185ZM16.4651 12.3837C16.608 12.2869 16.7835 12.2508 16.9531 12.2833C17.1227 12.3158 17.2724 12.4142 17.3694 12.5571L18.941 14.874C19.0305 15.017 19.0611 15.1891 19.0263 15.3541C18.9915 15.5191 18.8941 15.6643 18.7545 15.7589C18.6149 15.8536 18.4441 15.8905 18.2779 15.8618C18.1117 15.8331 17.9631 15.7411 17.8633 15.6051L16.2904 13.2894C16.2423 13.2186 16.2086 13.139 16.1912 13.0551C16.1739 12.9712 16.1732 12.8848 16.1893 12.8007C16.2054 12.7165 16.238 12.6364 16.2851 12.5649C16.3321 12.4933 16.3942 12.4318 16.4651 12.3837ZM26.8992 12.3434C26.7454 12.2651 26.5668 12.251 26.4026 12.3043C26.2384 12.3575 26.1021 12.4737 26.0235 12.6274L24.8416 14.9431C24.7996 15.0195 24.7734 15.1036 24.7645 15.1903C24.7556 15.277 24.7642 15.3647 24.7898 15.448C24.8154 15.5314 24.8575 15.6087 24.9135 15.6755C24.9696 15.7423 25.0385 15.7972 25.1161 15.8369C25.1937 15.8765 25.2785 15.9002 25.3655 15.9066C25.4524 15.9129 25.5398 15.9017 25.6223 15.8736C25.7049 15.8456 25.781 15.8012 25.8461 15.7432C25.9112 15.6852 25.964 15.6148 26.0013 15.536L27.1833 13.2191C27.2616 13.0652 27.2756 12.8866 27.2224 12.7224C27.1691 12.5583 27.0529 12.4219 26.8992 12.3434ZM21.7948 11.6201C21.9677 11.6201 22.1334 11.6888 22.2556 11.811C22.3778 11.9331 22.4464 12.0989 22.4464 12.2717V14.5873C22.4464 14.7601 22.3778 14.9259 22.2556 15.0481C22.1334 15.1702 21.9677 15.2389 21.7948 15.2389C21.622 15.2389 21.4563 15.1702 21.3341 15.0481C21.2119 14.9259 21.1433 14.7601 21.1433 14.5873V12.2717C21.1433 12.0989 21.2119 11.9331 21.3341 11.811C21.4563 11.6888 21.622 11.6201 21.7948 11.6201Z" fill="#31C5D9"/>
</svg>
