<svg width="48" height="48" viewBox="0 0 48 48" fill="none" xmlns="http://www.w3.org/2000/svg">
<rect width="48" height="48" rx="24" fill="#31C5D9" fill-opacity="0.2"/>
<g clip-path="url(#clip0_558_320)">
<path d="M24 16C22.4177 16 20.871 16.4692 19.5554 17.3482C18.2398 18.2273 17.2145 19.4767 16.609 20.9385C16.0035 22.4003 15.845 24.0089 16.1537 25.5607C16.4624 27.1126 17.2243 28.538 18.3431 29.6569C19.462 30.7757 20.8874 31.5376 22.4393 31.8463C23.9911 32.155 25.5997 31.9965 27.0615 31.391C28.5233 30.7855 29.7727 29.7602 30.6518 28.4446C31.5308 27.129 32 25.5823 32 24C31.9992 21.8785 31.1561 19.8441 29.656 18.344C28.1559 16.8439 26.1215 16.0008 24 16ZM18 24C18.0014 23.6326 18.0365 23.266 18.105 22.905L21.6 26.4V27.2C21.6013 27.6239 21.7703 28.0301 22.0701 28.3299C22.3699 28.6297 22.7761 28.7987 23.2 28.8V29.94C21.7617 29.7456 20.4425 29.0369 19.4865 27.9448C18.5305 26.8528 18.0024 25.4514 18 24ZM27.2 27.2H26.4V24.8C26.4 24.6949 26.3793 24.5909 26.3391 24.4939C26.2989 24.3968 26.24 24.3086 26.1657 24.2343C26.0914 24.16 26.0032 24.1011 25.9061 24.0609C25.8091 24.0207 25.7051 24 25.6 24H20.8V22.4H22.4C22.6122 22.4 22.8157 22.3157 22.9657 22.1657C23.1157 22.0157 23.2 21.8122 23.2 21.6V20H24.8C25.2058 19.9983 25.5959 19.8423 25.8911 19.5638C26.1863 19.2853 26.3646 18.9051 26.39 18.5C27.2545 18.8737 28.0186 19.4462 28.6201 20.1708C29.2217 20.8955 29.6438 21.7519 29.852 22.6704C30.0602 23.5889 30.0488 24.5435 29.8185 25.4568C29.5883 26.37 29.1458 27.216 28.527 27.926C28.3848 27.703 28.1887 27.5196 27.9567 27.3927C27.7247 27.2657 27.4644 27.1995 27.2 27.2ZM25 13C25 13.1978 24.9414 13.3911 24.8315 13.5556C24.7216 13.72 24.5654 13.8482 24.3827 13.9239C24.2 13.9996 23.9989 14.0194 23.8049 13.9808C23.6109 13.9422 23.4327 13.847 23.2929 13.7071C23.153 13.5673 23.0578 13.3891 23.0192 13.1951C22.9806 13.0011 23.0004 12.8 23.0761 12.6173C23.1518 12.4346 23.28 12.2784 23.4444 12.1685C23.6089 12.0586 23.8022 12 24 12C24.2652 12 24.5196 12.1054 24.7071 12.2929C24.8946 12.4804 25 12.7348 25 13ZM30 14C30 14.1978 29.9414 14.3911 29.8315 14.5556C29.7216 14.72 29.5654 14.8482 29.3827 14.9239C29.2 14.9996 28.9989 15.0194 28.8049 14.9808C28.6109 14.9422 28.4327 14.847 28.2929 14.7071C28.153 14.5673 28.0578 14.3891 28.0192 14.1951C27.9806 14.0011 28.0004 13.8 28.0761 13.6173C28.1518 13.4346 28.28 13.2784 28.4444 13.1685C28.6089 13.0586 28.8022 13 29 13C29.2652 13 29.5196 13.1054 29.7071 13.2929C29.8946 13.4804 30 13.7348 30 14ZM34 18C34 18.1978 33.9414 18.3911 33.8315 18.5556C33.7216 18.72 33.5654 18.8482 33.3827 18.9239C33.2 18.9996 32.9989 19.0194 32.8049 18.9808C32.6109 18.9422 32.4327 18.847 32.2929 18.7071C32.153 18.5673 32.0578 18.3891 32.0192 18.1951C31.9806 18.0011 32.0004 17.8 32.0761 17.6173C32.1518 17.4346 32.28 17.2784 32.4444 17.1685C32.6089 17.0586 32.8022 17 33 17C33.2652 17 33.5196 17.1054 33.7071 17.2929C33.8946 17.4804 34 17.7348 34 18ZM36 24C36 24.1978 35.9414 24.3911 35.8315 24.5556C35.7216 24.72 35.5654 24.8482 35.3827 24.9239C35.2 24.9996 34.9989 25.0194 34.8049 24.9808C34.6109 24.9422 34.4327 24.847 34.2929 24.7071C34.153 24.5673 34.0578 24.3891 34.0192 24.1951C33.9806 24.0011 34.0004 23.8 34.0761 23.6173C34.1518 23.4346 34.28 23.2784 34.4444 23.1685C34.6089 23.0586 34.8022 23 35 23C35.2652 23 35.5196 23.1054 35.7071 23.2929C35.8946 23.4804 36 23.7348 36 24ZM34 30C34 30.1978 33.9414 30.3911 33.8315 30.5556C33.7216 30.72 33.5654 30.8482 33.3827 30.9239C33.2 30.9996 32.9989 31.0194 32.8049 30.9808C32.6109 30.9422 32.4327 30.847 32.2929 30.7071C32.153 30.5673 32.0578 30.3891 32.0192 30.1951C31.9806 30.0011 32.0004 29.8 32.0761 29.6173C32.1518 29.4346 32.28 29.2784 32.4444 29.1685C32.6089 29.0586 32.8022 29 33 29C33.2652 29 33.5196 29.1054 33.7071 29.2929C33.8946 29.4804 34 29.7348 34 30ZM30 34C30 34.1978 29.9414 34.3911 29.8315 34.5556C29.7216 34.72 29.5654 34.8482 29.3827 34.9239C29.2 34.9996 28.9989 35.0194 28.8049 34.9808C28.6109 34.9422 28.4327 34.847 28.2929 34.7071C28.153 34.5673 28.0578 34.3891 28.0192 34.1951C27.9806 34.0011 28.0004 33.8 28.0761 33.6173C28.1518 33.4346 28.28 33.2784 28.4444 33.1685C28.6089 33.0586 28.8022 33 29 33C29.2652 33 29.5196 33.1054 29.7071 33.2929C29.8946 33.4804 30 33.7348 30 34ZM25 35C25 35.1978 24.9414 35.3911 24.8315 35.5556C24.7216 35.72 24.5654 35.8482 24.3827 35.9239C24.2 35.9996 23.9989 36.0194 23.8049 35.9808C23.6109 35.9422 23.4327 35.847 23.2929 35.7071C23.153 35.5673 23.0578 35.3891 23.0192 35.1951C22.9806 35.0011 23.0004 34.8 23.0761 34.6173C23.1518 34.4346 23.28 34.2784 23.4444 34.1685C23.6089 34.0586 23.8022 34 24 34C24.2652 34 24.5196 34.1054 24.7071 34.2929C24.8946 34.4804 25 34.7348 25 35ZM20 34C20 34.1978 19.9414 34.3911 19.8315 34.5556C19.7216 34.72 19.5654 34.8482 19.3827 34.9239C19.2 34.9996 18.9989 35.0194 18.8049 34.9808C18.6109 34.9422 18.4327 34.847 18.2929 34.7071C18.153 34.5673 18.0578 34.3891 18.0192 34.1951C17.9806 34.0011 18.0004 33.8 18.0761 33.6173C18.1518 33.4346 18.28 33.2784 18.4444 33.1685C18.6089 33.0586 18.8022 33 19 33C19.2652 33 19.5196 33.1054 19.7071 33.2929C19.8946 33.4804 20 33.7348 20 34ZM16 30C16 30.1978 15.9414 30.3911 15.8315 30.5556C15.7216 30.72 15.5654 30.8482 15.3827 30.9239C15.2 30.9996 14.9989 31.0194 14.8049 30.9808C14.6109 30.9422 14.4327 30.847 14.2929 30.7071C14.153 30.5673 14.0578 30.3891 14.0192 30.1951C13.9806 30.0011 14.0004 29.8 14.0761 29.6173C14.1518 29.4346 14.28 29.2784 14.4444 29.1685C14.6089 29.0586 14.8022 29 15 29C15.2652 29 15.5196 29.1054 15.7071 29.2929C15.8946 29.4804 16 29.7348 16 30ZM14 24C14 24.1978 13.9414 24.3911 13.8315 24.5556C13.7216 24.72 13.5654 24.8482 13.3827 24.9239C13.2 24.9996 12.9989 25.0194 12.8049 24.9808C12.6109 24.9422 12.4327 24.847 12.2929 24.7071C12.153 24.5673 12.0578 24.3891 12.0192 24.1951C11.9806 24.0011 12.0004 23.8 12.0761 23.6173C12.1518 23.4346 12.28 23.2784 12.4444 23.1685C12.6089 23.0586 12.8022 23 13 23C13.2652 23 13.5196 23.1054 13.7071 23.2929C13.8946 23.4804 14 23.7348 14 24ZM16 18C16 18.1978 15.9414 18.3911 15.8315 18.5556C15.7216 18.72 15.5654 18.8482 15.3827 18.9239C15.2 18.9996 14.9989 19.0194 14.8049 18.9808C14.6109 18.9422 14.4327 18.847 14.2929 18.7071C14.153 18.5673 14.0578 18.3891 14.0192 18.1951C13.9806 18.0011 14.0004 17.8 14.0761 17.6173C14.1518 17.4346 14.28 17.2784 14.4444 17.1685C14.6089 17.0586 14.8022 17 15 17C15.2652 17 15.5196 17.1054 15.7071 17.2929C15.8946 17.4804 16 17.7348 16 18ZM20 14C20 14.1978 19.9414 14.3911 19.8315 14.5556C19.7216 14.72 19.5654 14.8482 19.3827 14.9239C19.2 14.9996 18.9989 15.0194 18.8049 14.9808C18.6109 14.9422 18.4327 14.847 18.2929 14.7071C18.153 14.5673 18.0578 14.3891 18.0192 14.1951C17.9806 14.0011 18.0004 13.8 18.0761 13.6173C18.1518 13.4346 18.28 13.2784 18.4444 13.1685C18.6089 13.0586 18.8022 13 19 13C19.2652 13 19.5196 13.1054 19.7071 13.2929C19.8946 13.4804 20 13.7348 20 14Z" fill="#31C5D9"/>
</g>
<defs>
<clipPath id="clip0_558_320">
<rect width="24" height="24" fill="white" transform="translate(12 12)"/>
</clipPath>
</defs>
</svg>
