<svg width="48" height="48" viewBox="0 0 48 48" fill="none" xmlns="http://www.w3.org/2000/svg">
<rect width="48" height="48" rx="24" fill="#31C5D9" fill-opacity="0.2"/>
<g clip-path="url(#clip0_669_698)">
<path d="M23.9993 22.2167C22.8169 22.2167 21.6829 21.747 20.8468 20.9109C20.0107 20.0748 19.541 18.9408 19.541 17.7584C19.541 16.576 20.0107 15.442 20.8468 14.6059C21.6829 13.7698 22.8169 13.3 23.9993 13.3C25.1818 13.3 26.3158 13.7698 27.1519 14.6059C27.988 15.442 28.4577 16.576 28.4577 17.7584C28.4577 18.9408 27.988 20.0748 27.1519 20.9109C26.3158 21.747 25.1818 22.2167 23.9993 22.2167ZM23.9993 15.0834C22.5192 15.0834 21.3243 16.2782 21.3243 17.7584C21.3243 19.2385 22.5192 20.4334 23.9993 20.4334C25.4795 20.4334 26.6743 19.2385 26.6743 17.7584C26.6743 16.2782 25.4795 15.0834 23.9993 15.0834Z" fill="#31C5D9"/>
<path d="M34.7 29.35C34.2007 29.35 33.8083 28.9577 33.8083 28.4584C33.8083 27.959 34.2007 27.5667 34.7 27.5667C35.1993 27.5667 35.5917 27.1744 35.5917 26.675C35.5917 25.4926 35.122 24.3586 34.2859 23.5225C33.4498 22.6864 32.3158 22.2167 31.1333 22.2167H29.35C28.8507 22.2167 28.4583 21.8244 28.4583 21.325C28.4583 20.8257 28.8507 20.4334 29.35 20.4334C30.8302 20.4334 32.025 19.2385 32.025 17.7584C32.025 16.2782 30.8302 15.0834 29.35 15.0834C28.8507 15.0834 28.4583 14.691 28.4583 14.1917C28.4583 13.6924 28.8507 13.3 29.35 13.3C30.5324 13.3 31.6664 13.7698 32.5025 14.6059C33.3386 15.442 33.8083 16.576 33.8083 17.7584C33.8083 18.864 33.416 19.8627 32.7383 20.6474C35.3955 21.3607 37.375 23.786 37.375 26.675C37.375 28.1552 36.1802 29.35 34.7 29.35ZM13.3 29.35C11.8198 29.35 10.625 28.1552 10.625 26.675C10.625 23.786 12.5867 21.3607 15.2617 20.6474C14.6018 19.8627 14.1917 18.864 14.1917 17.7584C14.1917 16.576 14.6614 15.442 15.4975 14.6059C16.3336 13.7698 17.4676 13.3 18.65 13.3C19.1493 13.3 19.5417 13.6924 19.5417 14.1917C19.5417 14.691 19.1493 15.0834 18.65 15.0834C17.1698 15.0834 15.975 16.2782 15.975 17.7584C15.975 19.2385 17.1698 20.4334 18.65 20.4334C19.1493 20.4334 19.5417 20.8257 19.5417 21.325C19.5417 21.8244 19.1493 22.2167 18.65 22.2167H16.8667C15.6842 22.2167 14.5502 22.6864 13.7141 23.5225C12.878 24.3586 12.4083 25.4926 12.4083 26.675C12.4083 27.1744 12.8007 27.5667 13.3 27.5667C13.7993 27.5667 14.1917 27.959 14.1917 28.4584C14.1917 28.9577 13.7993 29.35 13.3 29.35ZM29.35 34.7H18.65C17.1698 34.7 15.975 33.5052 15.975 32.025V30.2417C15.975 26.7999 18.7748 24 22.2167 24H25.7833C29.2252 24 32.025 26.7999 32.025 30.2417V32.025C32.025 33.5052 30.8302 34.7 29.35 34.7ZM22.2167 25.7834C21.0342 25.7834 19.9002 26.2531 19.0641 27.0892C18.228 27.9253 17.7583 29.0593 17.7583 30.2417V32.025C17.7583 32.5244 18.1507 32.9167 18.65 32.9167H29.35C29.8493 32.9167 30.2417 32.5244 30.2417 32.025V30.2417C30.2417 29.0593 29.7719 27.9253 28.9359 27.0892C28.0998 26.2531 26.9658 25.7834 25.7833 25.7834H22.2167Z" fill="#31C5D9"/>
</g>
<defs>
<clipPath id="clip0_669_698">
<rect width="26.75" height="28.5333" fill="white" transform="translate(10.625 9.7334)"/>
</clipPath>
</defs>
</svg>
