<svg width="48" height="48" viewBox="0 0 48 48" fill="none" xmlns="http://www.w3.org/2000/svg">
<rect width="48" height="48" rx="24" fill="#31C5D9" fill-opacity="0.2"/>
<path d="M28.7986 15.2999C28.7986 15.0612 28.8934 14.8323 29.0622 14.6635C29.231 14.4947 29.4599 14.3999 29.6986 14.3999H32.6986C32.9373 14.3999 33.1662 14.4947 33.335 14.6635C33.5038 14.8323 33.5986 15.0612 33.5986 15.2999V18.2999C33.5986 18.5386 33.5038 18.7675 33.335 18.9363C33.1662 19.1051 32.9373 19.1999 32.6986 19.1999C32.4599 19.1999 32.231 19.1051 32.0622 18.9363C31.8934 18.7675 31.7986 18.5386 31.7986 18.2999V17.4719L26.4346 22.8359C26.2659 23.0044 26.0371 23.0991 25.7986 23.0991C25.5601 23.0991 25.3314 23.0044 25.1626 22.8359L22.1986 19.8719L17.1346 24.9359C17.0522 25.0243 16.9529 25.0953 16.8425 25.1444C16.7321 25.1936 16.6129 25.2201 16.492 25.2222C16.3712 25.2243 16.2512 25.2021 16.1391 25.1568C16.027 25.1116 15.9252 25.0442 15.8398 24.9587C15.7543 24.8733 15.6869 24.7715 15.6417 24.6594C15.5964 24.5474 15.5742 24.4273 15.5763 24.3065C15.5784 24.1856 15.6049 24.0665 15.6541 23.9561C15.7033 23.8457 15.7742 23.7463 15.8626 23.6639L21.5626 17.9639C21.7314 17.7954 21.9601 17.7007 22.1986 17.7007C22.4371 17.7007 22.6659 17.7954 22.8346 17.9639L25.7986 20.9279L30.5266 16.1999H29.6986C29.4599 16.1999 29.231 16.1051 29.0622 15.9363C28.8934 15.7675 28.7986 15.5386 28.7986 15.2999ZM16.4986 28.7999C16.7373 28.7999 16.9662 28.8947 17.135 29.0635C17.3038 29.2323 17.3986 29.4612 17.3986 29.6999V32.6999C17.3986 32.9386 17.3038 33.1675 17.135 33.3363C16.9662 33.5051 16.7373 33.5999 16.4986 33.5999C16.2599 33.5999 16.031 33.5051 15.8622 33.3363C15.6934 33.1675 15.5986 32.9386 15.5986 32.6999V29.6999C15.5986 29.4612 15.6934 29.2323 15.8622 29.0635C16.031 28.8947 16.2599 28.7999 16.4986 28.7999ZM22.1986 26.0999C22.1986 25.8612 22.1038 25.6323 21.935 25.4635C21.7662 25.2947 21.5373 25.1999 21.2986 25.1999C21.0599 25.1999 20.831 25.2947 20.6622 25.4635C20.4934 25.6323 20.3986 25.8612 20.3986 26.0999V32.6999C20.3986 32.9386 20.4934 33.1675 20.6622 33.3363C20.831 33.5051 21.0599 33.5999 21.2986 33.5999C21.5373 33.5999 21.7662 33.5051 21.935 33.3363C22.1038 33.1675 22.1986 32.9386 22.1986 32.6999V26.0999ZM26.0986 27.5999C26.3373 27.5999 26.5662 27.6947 26.735 27.8635C26.9038 28.0323 26.9986 28.2612 26.9986 28.4999V32.6999C26.9986 32.9386 26.9038 33.1675 26.735 33.3363C26.5662 33.5051 26.3373 33.5999 26.0986 33.5999C25.8599 33.5999 25.631 33.5051 25.4622 33.3363C25.2934 33.1675 25.1986 32.9386 25.1986 32.6999V28.4999C25.1986 28.2612 25.2934 28.0323 25.4622 27.8635C25.631 27.6947 25.8599 27.5999 26.0986 27.5999ZM31.7986 23.6999C31.7986 23.4612 31.7038 23.2323 31.535 23.0635C31.3662 22.8947 31.1373 22.7999 30.8986 22.7999C30.6599 22.7999 30.431 22.8947 30.2622 23.0635C30.0934 23.2323 29.9986 23.4612 29.9986 23.6999V32.6999C29.9986 32.9386 30.0934 33.1675 30.2622 33.3363C30.431 33.5051 30.6599 33.5999 30.8986 33.5999C31.1373 33.5999 31.3662 33.5051 31.535 33.3363C31.7038 33.1675 31.7986 32.9386 31.7986 32.6999V23.6999Z" fill="#31C5D9"/>
</svg>
