<svg width="48" height="48" viewBox="0 0 48 48" fill="none" xmlns="http://www.w3.org/2000/svg">
<rect width="48" height="48" rx="24" fill="#31C5D9" fill-opacity="0.2"/>
<path d="M16 33C15.45 33 14.9793 32.8043 14.588 32.413C14.1967 32.0217 14.0007 31.5507 14 31V20C14 19.45 14.196 18.9793 14.588 18.588C14.98 18.1967 15.4507 18.0007 16 18H20V16C20 15.45 20.196 14.9793 20.588 14.588C20.98 14.1967 21.4507 14.0007 22 14H26C26.55 14 27.021 14.196 27.413 14.588C27.805 14.98 28.0007 15.4507 28 16V18H32C32.55 18 33.021 18.196 33.413 18.588C33.805 18.98 34.0007 19.4507 34 20V31C34 31.55 33.8043 32.021 33.413 32.413C33.0217 32.805 32.5507 33.0007 32 33H16ZM22 18H26V16H22V18ZM32 27H27V29H21V27H16V31H32V27ZM23 27H25V25H23V27ZM16 25H21V23H27V25H32V20H16V25Z" fill="#31C5D9"/>
</svg>
