<svg width="48" height="48" viewBox="0 0 48 48" fill="none" xmlns="http://www.w3.org/2000/svg">
<rect width="48" height="48" rx="24" fill="#31C5D9" fill-opacity="0.2"/>
<path fill-rule="evenodd" clip-rule="evenodd" d="M20.153 15.2083C20.153 14.9169 20.0372 14.6373 19.8311 14.4313C19.625 14.2252 19.3455 14.1094 19.054 14.1094H15.7572C15.4657 14.1094 15.1862 14.2252 14.9801 14.4313C14.774 14.6373 14.6582 14.9169 14.6582 15.2083V32.7917C14.6582 33.0831 14.774 33.3627 14.9801 33.5687C15.1862 33.7748 15.4657 33.8906 15.7572 33.8906H19.054C19.3455 33.8906 19.625 33.7748 19.8311 33.5687C20.0372 33.3627 20.153 33.0831 20.153 32.7917V15.2083ZM16.8561 16.3073V31.6927H17.9551V16.3073H16.8561Z" fill="#31C5D9"/>
<path d="M21.252 22.5215V32.7912C21.252 33.0827 21.3677 33.3622 21.5738 33.5683C21.7799 33.7744 22.0594 33.8902 22.3509 33.8902H25.6478C25.9392 33.8902 26.2188 33.7744 26.4249 33.5683C26.631 33.3622 26.7467 33.0827 26.7467 32.7912V25.3722H26.6094C25.9089 25.3725 25.2131 25.2593 24.5488 25.037V31.6923H23.4499V24.5491C22.5693 24.0537 21.8166 23.3594 21.252 22.5215Z" fill="#31C5D9"/>
<path fill-rule="evenodd" clip-rule="evenodd" d="M26.6102 23.7253C26.6563 23.7253 26.7021 23.7245 26.7476 23.7231C27.5958 23.7004 28.4226 23.4523 29.1433 23.0043L32.0149 25.8759L33.5688 24.322L30.6972 21.4504C31.2582 20.5454 31.5029 19.4798 31.3929 18.4207C31.2829 17.3617 30.8245 16.3691 30.0895 15.5986C29.3546 14.8282 28.3847 14.3235 27.332 14.1638C26.2792 14.0041 25.2033 14.1983 24.2729 14.716C23.3424 15.2338 22.6102 16.0457 22.191 17.0245C21.7718 18.0033 21.6894 19.0935 21.9567 20.1242C22.2239 21.1549 22.8258 22.0677 23.6678 22.7194C24.5098 23.3711 25.5443 23.7249 26.6091 23.7253M26.6091 21.5273C26.2525 21.5275 25.8996 21.4544 25.5724 21.3127C25.2452 21.1709 24.9505 20.9634 24.7068 20.7031C24.2961 20.2654 24.0488 19.6994 24.0067 19.1006C23.9645 18.5018 24.13 17.9068 24.4754 17.4158C24.8207 16.9248 25.3247 16.5678 25.9025 16.4051C26.4803 16.2423 27.0965 16.2837 27.6474 16.5222C28.1982 16.7607 28.65 17.1819 28.9266 17.7146C29.2032 18.2473 29.2878 18.8592 29.166 19.4469C29.0442 20.0347 28.7235 20.5626 28.2579 20.9415C27.7924 21.3205 27.2105 21.5274 26.6102 21.5273M28.9455 27.2969C28.654 27.2969 28.3745 27.4127 28.1684 27.6188C27.9623 27.8249 27.8465 28.1044 27.8465 28.3958V32.7917C27.8465 33.0831 27.9623 33.3627 28.1684 33.5688C28.3745 33.7748 28.654 33.8906 28.9455 33.8906H32.2423C32.5338 33.8906 32.8133 33.7748 33.0194 33.5688C33.2255 33.3627 33.3413 33.0831 33.3413 32.7917V28.3958C33.3413 28.1044 33.2255 27.8249 33.0194 27.6188C32.8133 27.4127 32.5338 27.2969 32.2423 27.2969H28.9455ZM30.0444 31.6927V29.4948H31.1434V31.6927H30.0444Z" fill="#31C5D9"/>
</svg>
