<svg width="48" height="48" viewBox="0 0 48 48" fill="none" xmlns="http://www.w3.org/2000/svg">
<rect width="48" height="48" rx="24" fill="#31C5D9" fill-opacity="0.2"/>
<path d="M21.6127 15.1849C20.0212 15.1849 17.5812 16.1034 18.4297 21.7914C18.443 21.8774 18.4589 21.9703 18.4772 22.0699C18.6322 22.9254 18.8712 24.2499 17.3502 25.3419C18.3847 26.1909 19.8582 27.0394 21.6487 27.4069C21.5778 27.813 21.4891 28.2157 21.3827 28.6139C21.2372 29.1479 20.9322 29.5264 20.3872 29.6879C19.9072 29.8299 19.4042 29.9449 18.8892 30.0629C18.7565 30.0929 18.6232 30.1236 18.4892 30.1549C17.8467 30.3044 17.1917 30.4699 16.6112 30.7039C16.0292 30.9389 15.4882 31.2554 15.0972 31.7274C14.6992 32.2089 14.4862 32.8159 14.5007 33.5749C14.5057 33.8109 14.7077 33.9999 14.9557 33.9999H33.0447C33.2927 33.9999 33.4947 33.8109 33.4997 33.5749C33.5142 32.8159 33.3017 32.2089 32.9032 31.7274C32.5127 31.2554 31.9712 30.9384 31.3897 30.7039C30.8087 30.4694 30.1537 30.3039 29.5107 30.1544L29.1117 30.0629C28.5962 29.9449 28.0932 29.8299 27.6132 29.6879C27.0682 29.5264 26.7632 29.1479 26.6177 28.6139C26.4906 28.1398 26.3894 27.6591 26.3147 27.1739C27.6837 26.7619 29.1387 26.0214 30.6502 24.8389L30.6432 24.8319C29.9337 24.1529 28.6037 22.8799 28.5092 19.8579C28.5092 15.6969 25.8562 12.0399 21.6127 15.1849Z" stroke="#31C5D9" stroke-width="2" stroke-linejoin="round"/>
</svg>
