<svg width="48" height="48" viewBox="0 0 48 48" fill="none" xmlns="http://www.w3.org/2000/svg">
<rect width="48" height="48" rx="24" fill="#31C5D9" fill-opacity="0.2"/>
<g clip-path="url(#clip0_557_190)">
<path d="M36.8573 21.9544L34.2592 16.7562C34.1635 16.5648 34.0311 16.3942 33.8694 16.2541C33.7078 16.114 33.5201 16.0071 33.3171 15.9395C33.1141 15.8719 32.8998 15.8449 32.6864 15.8602C32.4731 15.8754 32.2648 15.9325 32.0734 16.0283L29.5415 17.2937L24.2079 15.8827C24.071 15.8471 23.9273 15.8471 23.7905 15.8827L18.4568 17.2937L15.9249 16.0283C15.7336 15.9325 15.5253 15.8754 15.3119 15.8602C15.0985 15.8449 14.8842 15.8719 14.6812 15.9395C14.4782 16.0071 14.2906 16.114 14.1289 16.2541C13.9673 16.3942 13.8348 16.5648 13.7391 16.7562L11.141 21.9534C11.0452 22.1447 10.9881 22.353 10.9729 22.5664C10.9577 22.7798 10.9846 22.9941 11.0522 23.1971C11.1198 23.4 11.2267 23.5877 11.3668 23.7494C11.507 23.911 11.6776 24.0435 11.8689 24.1392L14.6177 25.5146L20.2669 29.5492C20.3502 29.6083 20.4438 29.6515 20.5428 29.6764L27.0584 31.3054C27.1949 31.3396 27.3379 31.3379 27.4735 31.3004C27.6091 31.2629 27.7327 31.191 27.8322 31.0916L33.4387 25.4841L36.1284 24.1392C36.5145 23.9459 36.8081 23.6072 36.9446 23.1975C37.0811 22.7878 37.0494 22.3407 36.8563 21.9544H36.8573ZM31.2692 25.3517L27.766 22.5459C27.6091 22.4202 27.4112 22.357 27.2104 22.3685C27.0097 22.38 26.8203 22.4653 26.6787 22.608C24.8655 24.4344 22.8447 24.2033 21.5558 23.3889L25.9579 19.113H29.1964L31.9665 24.6523L31.2692 25.3517ZM15.1959 17.4841L17.2799 18.5246L14.6767 23.7218L12.5968 22.6823L15.1959 17.4841ZM27.0055 29.6123L21.0895 28.1341L16.0806 24.5566L18.9312 18.8554L23.9992 17.5126L24.9969 17.7763L20.4156 22.2232L20.4074 22.2323C20.235 22.4048 20.1034 22.6138 20.0225 22.8439C19.9416 23.0739 19.9134 23.3192 19.94 23.5617C19.9666 23.8041 20.0473 24.0375 20.1761 24.2446C20.3049 24.4517 20.4786 24.6272 20.6843 24.7582C22.7775 26.0949 25.3033 25.878 27.2926 24.2491L30.1076 26.5103L27.0055 29.6123ZM33.3175 23.7208L30.7194 18.5286L32.8024 17.4841L35.4015 22.6823L33.3175 23.7208ZM24.384 33.1552C24.34 33.3312 24.2385 33.4875 24.0955 33.5993C23.9526 33.711 23.7764 33.7719 23.595 33.7721C23.5281 33.7722 23.4614 33.764 23.3965 33.7477L19.1542 32.6869C19.055 32.6624 18.9613 32.6192 18.8783 32.5596L16.1957 30.6436C16.0307 30.5141 15.9221 30.326 15.8924 30.1184C15.8627 29.9108 15.9142 29.6997 16.0362 29.5291C16.1583 29.3586 16.3414 29.2417 16.5474 29.2027C16.7535 29.1638 16.9666 29.2058 17.1425 29.3201L19.6988 31.1465L23.7955 32.1687C24.0051 32.2211 24.1852 32.3546 24.2963 32.5398C24.4074 32.7249 24.4404 32.9467 24.3881 33.1562L24.384 33.1552Z" fill="#31C5D9"/>
</g>
<defs>
<clipPath id="clip0_557_190">
<rect width="26.0625" height="26.0625" fill="white" transform="translate(10.9688 10.9688)"/>
</clipPath>
</defs>
</svg>
