<svg width="48" height="48" viewBox="0 0 48 48" fill="none" xmlns="http://www.w3.org/2000/svg">
<rect width="48" height="48" rx="24" fill="#31C5D9" fill-opacity="0.2"/>
<path d="M27 31C27 28.79 24.314 27 21 27C17.686 27 15 28.79 15 31M28.828 17.172C29.1995 17.5434 29.4941 17.9844 29.6951 18.4697C29.8962 18.955 29.9996 19.4752 29.9996 20.0005C29.9996 20.5258 29.8962 21.046 29.6951 21.5313C29.4941 22.0166 29.1995 22.4576 28.828 22.829M31 15C31.6567 15.6565 32.1777 16.436 32.5331 17.2939C32.8886 18.1518 33.0715 19.0714 33.0715 20C33.0715 20.9286 32.8886 21.8482 32.5331 22.7061C32.1777 23.564 31.6567 24.3435 31 25M21 24C19.9391 24 18.9217 23.5786 18.1716 22.8284C17.4214 22.0783 17 21.0609 17 20C17 18.9391 17.4214 17.9217 18.1716 17.1716C18.9217 16.4214 19.9391 16 21 16C22.0609 16 23.0783 16.4214 23.8284 17.1716C24.5786 17.9217 25 18.9391 25 20C25 21.0609 24.5786 22.0783 23.8284 22.8284C23.0783 23.5786 22.0609 24 21 24Z" stroke="#31C5D9" stroke-width="2" stroke-linecap="round" stroke-linejoin="round"/>
</svg>
