<svg width="178" height="48" viewBox="0 0 178 48" fill="none" xmlns="http://www.w3.org/2000/svg">
<g clip-path="url(#clip0_561_771)">
<path d="M6.44734 22.0334C6.38275 21.9489 6.29744 21.8825 6.19966 21.8406C6.10188 21.7986 5.99495 21.7827 5.88918 21.7941C5.78342 21.8056 5.68241 21.8442 5.59592 21.9062C5.50943 21.9681 5.44038 22.0513 5.39544 22.1477L0.0652924 32.8047C0.0167355 32.9018 -0.00619054 33.0097 -0.00130892 33.1182C0.00357269 33.2267 0.0360999 33.3321 0.0931844 33.4245C0.150269 33.5169 0.230016 33.5931 0.324854 33.646C0.419692 33.6989 0.526473 33.7266 0.635059 33.7267H8.05702C8.17589 33.7294 8.29301 33.6976 8.39415 33.6351C8.49529 33.5726 8.57611 33.482 8.62678 33.3745C10.2278 30.0662 9.25753 25.0359 6.44734 22.0334Z" fill="black" fill-opacity="0.4"/>
<path d="M10.3564 12.3404C9.02831 14.384 8.25433 16.7377 8.11046 19.1707C7.96658 21.6036 8.45775 24.0322 9.53576 26.2181L13.114 33.3745C13.1669 33.4803 13.2482 33.5693 13.3488 33.6315C13.4495 33.6937 13.5654 33.7266 13.6837 33.7267H21.1044C21.2129 33.7266 21.3197 33.6989 21.4146 33.646C21.5094 33.5931 21.5892 33.5169 21.6462 33.4245C21.7033 33.3321 21.7358 33.2267 21.7407 33.1182C21.7456 33.0097 21.7227 32.9018 21.6741 32.8047C21.6741 32.8047 11.6909 12.8359 11.44 12.3364C11.3904 12.2347 11.3131 12.1491 11.2171 12.0894C11.121 12.0296 11.0101 11.9981 10.897 11.9985C10.7838 11.999 10.6731 12.0313 10.5775 12.0917C10.4819 12.1522 10.4053 12.2384 10.3564 12.3404Z" fill="black" fill-opacity="0.4"/>
<path d="M97.398 20.8851C97.398 23.524 98.6222 25.6191 103.411 26.5441C106.267 27.1438 106.866 27.605 106.866 28.5573C106.866 29.4822 106.266 30.081 104.254 30.081C101.822 30.0372 99.4386 29.3923 97.3164 28.2037V32.502C98.7585 33.2093 100.663 33.9984 104.2 33.9984C109.206 33.9984 111.192 31.7659 111.192 28.4483L97.398 20.8851ZM111.192 28.4483C111.192 25.3196 109.532 23.8502 104.853 22.8439C102.268 22.2725 101.642 21.7014 101.642 20.8851C101.642 19.8522 102.567 19.416 104.281 19.416C106.349 19.416 108.39 20.0417 110.321 20.9124V16.8041C108.469 15.9611 106.452 15.5428 104.417 15.5799C99.7921 15.5799 97.398 17.5931 97.398 20.8851" fill="black" fill-opacity="0.4"/>
<path d="M161.711 15.8521V33.7267H165.52V20.0963L167.125 23.7145L172.512 33.7267H177.3V15.8521H173.491V27.3877L172.049 24.041L167.723 15.8521H161.711Z" fill="black" fill-opacity="0.4"/>
<path d="M137.485 15.8521H133.322V33.7267H137.485V15.8521Z" fill="black" fill-opacity="0.4"/>
<path d="M128.52 28.4483C128.52 25.3196 126.86 23.8502 122.181 22.8439C119.596 22.2725 118.97 21.7014 118.97 20.8851C118.97 19.8522 119.895 19.416 121.609 19.416C123.677 19.416 125.718 20.0417 127.649 20.9124V16.8041C125.797 15.9611 123.78 15.5428 121.745 15.5799C117.12 15.5799 114.726 17.5931 114.726 20.8851C114.726 23.524 115.95 25.6191 120.739 26.5441C123.596 27.1438 124.194 27.605 124.194 28.5573C124.194 29.4822 123.594 30.081 121.582 30.081C119.15 30.0372 116.767 29.3923 114.645 28.2037V32.502C116.087 33.2093 117.991 33.9984 121.528 33.9984C126.534 33.9984 128.52 31.7659 128.52 28.4483Z" fill="black" fill-opacity="0.4"/>
<path d="M65.0605 15.8521V33.7267H73.6164L74.9635 29.8633H69.2502V15.8521H65.0605Z" fill="black" fill-opacity="0.4"/>
<path d="M48.1562 15.8521V19.7151H52.7814V33.7267H56.971V19.7151H61.9226V15.8521H48.1562Z" fill="black" fill-opacity="0.4"/>
<path d="M42.0813 15.8521H36.5905L30.3574 33.7267H35.1175L36.0011 30.7163C38.1774 31.3553 40.4915 31.3553 42.6677 30.7163L43.5514 33.7267H48.3124L42.0813 15.8521ZM39.3357 27.4929C38.5604 27.4929 37.789 27.3819 37.045 27.1634L39.3357 19.3629L41.6265 27.1661C40.8824 27.3837 40.111 27.4938 39.3357 27.4929Z" fill="black" fill-opacity="0.4"/>
<path d="M88.3661 15.8521H82.8757L76.6426 33.7267H81.4036L82.2873 30.7163C84.4635 31.3553 86.7776 31.3553 88.9539 30.7163L89.8375 33.7267H94.5986L88.3661 15.8521ZM85.6209 27.4929C84.8455 27.4929 84.0741 27.3819 83.3302 27.1634L85.6209 19.3629L87.9116 27.1661C87.1675 27.3837 86.3962 27.4938 85.6209 27.4929Z" fill="black" fill-opacity="0.4"/>
<path d="M152.485 15.8521H146.995L140.762 33.7267H145.523L146.406 30.7163C148.583 31.3553 150.897 31.3553 153.073 30.7163L153.957 33.7267H158.718L152.485 15.8521ZM149.738 27.4929C148.963 27.4929 148.192 27.3819 147.448 27.1634L149.738 19.3629L152.029 27.1661C151.285 27.3837 150.514 27.4938 149.738 27.4929Z" fill="black" fill-opacity="0.4"/>
</g>
<defs>
<clipPath id="clip0_561_771">
<rect width="178" height="48" fill="white"/>
</clipPath>
</defs>
</svg>
