<svg width="115" height="48" viewBox="0 0 115 48" fill="none" xmlns="http://www.w3.org/2000/svg">
<path d="M49.0913 25.6501C49.0913 30.9734 44.8532 34.896 39.6521 34.896C34.451 34.896 30.2129 30.9734 30.2129 25.6501C30.2129 20.2894 34.451 16.4043 39.6521 16.4043C44.8532 16.4043 49.0913 20.2894 49.0913 25.6501ZM44.9592 25.6501C44.9592 22.3236 42.5029 20.0476 39.6521 20.0476C36.8012 20.0476 34.3449 22.3236 34.3449 25.6501C34.3449 28.9433 36.8012 31.2527 39.6521 31.2527C42.5029 31.2527 44.9592 28.9391 44.9592 25.6501Z" fill="black" fill-opacity="0.4"/>
<path d="M69.4545 25.6501C69.4545 30.9734 65.2164 34.896 60.0154 34.896C54.8143 34.896 50.5762 30.9734 50.5762 25.6501C50.5762 20.2936 54.8143 16.4043 60.0154 16.4043C65.2164 16.4043 69.4545 20.2894 69.4545 25.6501ZM65.3225 25.6501C65.3225 22.3236 62.8662 20.0476 60.0154 20.0476C57.1645 20.0476 54.7082 22.3236 54.7082 25.6501C54.7082 28.9433 57.1645 31.2527 60.0154 31.2527C62.8662 31.2527 65.3225 28.9391 65.3225 25.6501Z" fill="black" fill-opacity="0.4"/>
<path d="M88.97 16.9629V33.562C88.97 40.3901 84.8719 43.1789 80.0272 43.1789C75.4667 43.1789 72.7219 40.1817 71.6868 37.7306L75.2843 36.2591C75.9249 37.7639 77.4945 39.5397 80.023 39.5397C83.1241 39.5397 85.0459 37.6597 85.0459 34.1206V32.7909H84.9016C83.9768 33.9122 82.195 34.8918 79.9466 34.8918C75.2418 34.8918 70.9316 30.865 70.9316 25.6835C70.9316 20.4645 75.2418 16.4043 79.9466 16.4043C82.1908 16.4043 83.9726 17.3839 84.9016 18.4719H85.0459V16.9671H88.97V16.9629ZM85.3386 25.6835C85.3386 22.4278 83.1283 20.0476 80.3157 20.0476C77.4648 20.0476 75.0764 22.4278 75.0764 25.6835C75.0764 28.9058 77.4648 31.2527 80.3157 31.2527C83.1283 31.2527 85.3386 28.9058 85.3386 25.6835Z" fill="black" fill-opacity="0.4"/>
<path d="M95.4384 7.2334V34.329H91.4082V7.2334H95.4384Z" fill="black" fill-opacity="0.4"/>
<path d="M111.144 28.6934L114.351 30.7944C113.316 32.2992 110.821 34.8921 106.511 34.8921C101.166 34.8921 97.1738 30.8319 97.1738 25.6462C97.1738 20.1479 101.2 16.4004 106.049 16.4004C110.932 16.4004 113.32 20.2188 114.101 22.2822L114.529 23.3327L101.951 28.4517C102.914 30.3067 104.411 31.2529 106.511 31.2529C108.615 31.2529 110.075 30.2358 111.144 28.6934ZM101.272 25.3669L109.68 21.9362C109.218 20.7815 107.826 19.977 106.189 19.977C104.089 19.977 101.166 21.7987 101.272 25.3669Z" fill="black" fill-opacity="0.4"/>
<path d="M14.9571 23.2447V19.3221H28.4095C28.541 20.0058 28.6089 20.8145 28.6089 21.6899C28.6089 24.6329 27.7902 28.272 25.1514 30.8648C22.5848 33.491 19.3055 34.8917 14.9614 34.8917C6.90943 34.8917 0.138672 28.4471 0.138672 20.5352C0.138672 12.6233 6.90943 6.17871 14.9614 6.17871C19.4158 6.17871 22.5891 7.89615 24.9733 10.1347L22.1563 12.9026C20.4467 11.3269 18.1304 10.1013 14.9571 10.1013C9.07726 10.1013 4.47857 14.7576 4.47857 20.5352C4.47857 26.3128 9.07726 30.9691 14.9571 30.9691C18.771 30.9691 20.943 29.4642 22.3345 28.0969C23.463 26.9881 24.2054 25.4041 24.4981 23.2406L14.9571 23.2447Z" fill="black" fill-opacity="0.4"/>
</svg>
