<svg width="24" height="24" viewBox="0 0 24 24" fill="none" xmlns="http://www.w3.org/2000/svg">
<path d="M14.422 18.5131C14.2859 18.6582 14.0978 18.7432 13.899 18.7496C13.7003 18.756 13.5071 18.6832 13.362 18.5471L13.362 12.7501L4.5 12.7501C4.30109 12.7501 4.11032 12.6711 3.96967 12.5304C3.82902 12.3898 3.75 12.199 3.75 12.0001C3.75 11.8012 3.82902 11.6104 3.96967 11.4698C4.11032 11.3291 4.30109 11.2501 4.5 11.2501L13.362 11.2501L13.362 5.45311C13.5071 5.31708 13.7003 5.24424 13.899 5.25061C14.0978 5.25699 14.2859 5.34206 14.422 5.48711L20.047 11.4871C20.1773 11.6261 20.2499 11.8095 20.2499 12.0001C20.2499 12.1907 20.1773 12.3741 20.047 12.5131L14.422 18.5131Z" fill="#EFCE39"/>
</svg>
