<svg width="271" height="223" viewBox="0 0 271 223" fill="none" xmlns="http://www.w3.org/2000/svg">
<path d="M91.9473 222.539C78.3995 222.539 65.9621 219.985 54.6353 214.877C43.3084 209.769 33.5362 202.44 25.3187 192.89C17.3233 183.118 11.1046 171.347 6.6627 157.577C2.22079 143.807 -0.000157967 128.371 -0.000157967 111.27C-0.000157967 92.6137 2.10975 76.4008 6.32956 62.6309C10.5494 48.6389 16.657 36.9789 24.6524 27.6509C32.8699 18.3229 42.6421 11.4379 53.969 6.99602C65.2958 2.33203 77.9553 3.48132e-05 91.9473 3.48132e-05C105.495 3.48132e-05 117.821 2.55413 128.926 7.66232C140.253 12.7705 149.914 20.2107 157.91 29.9829C166.127 39.533 172.457 51.193 176.899 64.9629C181.563 78.5107 183.895 93.9463 183.895 111.27C183.895 128.815 181.563 144.473 176.899 158.243C172.457 172.013 166.127 183.673 157.91 193.223C149.914 202.773 140.253 210.102 128.926 215.21C117.821 220.096 105.495 222.539 91.9473 222.539ZM91.6141 191.557C104.496 191.557 115.267 188.226 123.929 181.563C132.813 174.678 139.476 165.128 143.918 152.913C148.359 140.697 150.58 126.594 150.58 110.603C150.58 94.6126 148.359 80.7316 143.918 68.9606C139.476 56.9675 132.813 47.6395 123.929 40.9766C115.267 34.3137 104.496 30.9823 91.6141 30.9823C78.7326 30.9823 67.961 34.4248 59.2993 41.3098C50.6376 47.9726 44.0857 57.3006 39.6438 69.2937C35.424 81.2869 33.3141 95.2789 33.3141 111.27C33.3141 127.039 35.424 141.031 39.6438 153.246C44.0857 165.239 50.6376 174.678 59.2993 181.563C67.961 188.226 78.7326 191.557 91.6141 191.557ZM213.227 2.33202H270.527V221.54H238.213V33.3143H213.227V2.33202Z" fill="#CDE1FF" fill-opacity="0.4"/>
</svg>
