<svg width="349" height="225" viewBox="0 0 349 225" fill="none" xmlns="http://www.w3.org/2000/svg">
<path d="M91.9476 222.539C78.3998 222.539 65.9624 219.985 54.6356 214.877C43.3087 209.769 33.5365 202.44 25.319 192.89C17.3236 183.118 11.1049 171.347 6.66299 157.577C2.22108 143.807 0.00013195 128.371 0.00013195 111.27C0.00013195 92.6137 2.11004 76.4008 6.32985 62.6309C10.5497 48.6389 16.6573 36.9789 24.6527 27.6509C32.8702 18.3229 42.6424 11.4379 53.9693 6.99602C65.2961 2.33203 77.9556 3.48132e-05 91.9476 3.48132e-05C105.495 3.48132e-05 117.822 2.55413 128.926 7.66232C140.253 12.7705 149.914 20.2107 157.91 29.9829C166.127 39.533 172.457 51.193 176.899 64.9629C181.563 78.5107 183.895 93.9463 183.895 111.27C183.895 128.815 181.563 144.473 176.899 158.243C172.457 172.013 166.127 183.673 157.91 193.223C149.914 202.773 140.253 210.102 128.926 215.21C117.822 220.096 105.495 222.539 91.9476 222.539ZM91.6144 191.557C104.496 191.557 115.268 188.226 123.929 181.563C132.813 174.678 139.476 165.128 143.918 152.913C148.36 140.697 150.581 126.594 150.581 110.603C150.581 94.6126 148.36 80.7316 143.918 68.9606C139.476 56.9675 132.813 47.6395 123.929 40.9766C115.268 34.3137 104.496 30.9823 91.6144 30.9823C78.7329 30.9823 67.9613 34.4248 59.2996 41.3098C50.6378 47.9726 44.086 57.3006 39.6441 69.2937C35.4243 81.2869 33.3144 95.2789 33.3144 111.27C33.3144 127.039 35.4243 141.031 39.6441 153.246C44.086 165.239 50.6378 174.678 59.2996 181.563C67.9613 188.226 78.7329 191.557 91.6144 191.557ZM341.154 2.33202L282.521 96.6115L263.199 87.6166C266.086 86.0619 269.306 84.9515 272.86 84.2852C276.413 83.6189 279.967 83.2857 283.52 83.2857C291.738 82.8416 299.733 83.7299 307.507 85.9509C315.28 88.1718 322.276 91.8364 328.495 96.9446C334.713 102.053 339.599 108.827 343.153 117.266C346.929 125.706 348.816 136.144 348.816 148.582C348.816 164.128 345.263 177.565 338.156 188.892C331.049 200.219 321.61 208.992 309.839 215.21C298.29 221.207 285.408 224.205 271.194 224.205C260.533 224.205 249.873 222.095 239.212 217.875C228.774 213.434 220.112 207.659 213.227 200.552L229.551 173.901C233.771 178.787 239.545 183.229 246.875 187.226C254.426 191.224 262.199 193.223 270.195 193.223C278.634 193.223 286.185 191.335 292.848 187.559C299.733 183.784 305.175 178.454 309.172 171.569C313.392 164.462 315.502 156.244 315.502 146.916C315.502 134.035 311.726 123.929 304.175 116.6C296.846 109.271 286.741 105.606 273.859 105.606C267.418 105.606 261.977 106.162 257.535 107.272C253.093 108.16 249.096 109.271 245.542 110.603L244.543 109.271L296.18 28.9835L306.174 33.3143H225.887V2.33202H341.154Z" fill="#CDE1FF" fill-opacity="0.4"/>
</svg>
