<svg width="363" height="223" viewBox="0 0 363 223" fill="none" xmlns="http://www.w3.org/2000/svg">
<path d="M91.947 222.872C78.3992 222.872 65.9618 220.318 54.635 215.21C43.3081 210.102 33.5359 202.773 25.3184 193.223C17.323 183.451 11.1043 171.68 6.66241 157.91C2.2205 144.14 -0.000447884 128.704 -0.000447884 111.603C-0.000447884 92.9468 2.10946 76.7338 6.32927 62.9639C10.5491 48.9719 16.6567 37.3119 24.6521 27.9839C32.8696 18.6559 42.6418 11.7709 53.9687 7.32903C65.2956 2.66504 77.955 0.333043 91.947 0.333043C105.495 0.333043 117.821 2.88714 128.926 7.99533C140.253 13.1035 149.914 20.5437 157.909 30.3159C166.127 39.866 172.457 51.526 176.898 65.2959C181.562 78.8437 183.894 94.2793 183.894 111.603C183.894 129.148 181.562 144.806 176.898 158.576C172.457 172.346 166.127 184.006 157.909 193.556C149.914 203.106 140.253 210.435 128.926 215.543C117.821 220.429 105.495 222.872 91.947 222.872ZM91.6138 191.89C104.495 191.89 115.267 188.559 123.929 181.896C132.813 175.011 139.475 165.461 143.917 153.246C148.359 141.03 150.58 126.927 150.58 110.936C150.58 94.9456 148.359 81.0647 143.917 69.2936C139.475 57.3005 132.813 47.9725 123.929 41.3096C115.267 34.6468 104.495 31.3153 91.6138 31.3153C78.7323 31.3153 67.9607 34.7578 59.299 41.6428C50.6373 48.3056 44.0855 57.6336 39.6436 69.6268C35.4237 81.6199 33.3138 95.6119 33.3138 111.603C33.3138 127.372 35.4237 141.364 39.6436 153.579C44.0855 165.572 50.6373 175.011 59.299 181.896C67.9607 188.559 78.7323 191.89 91.6138 191.89ZM213.227 221.873C227.441 208.103 240.989 194.555 253.87 181.23C266.752 167.904 278.301 155.022 288.517 142.585C298.955 130.148 307.173 118.155 313.169 106.606C319.166 94.8346 322.164 83.5077 322.164 72.625C322.164 65.2959 320.943 59.0772 318.5 53.969C316.057 48.6388 312.836 44.3079 308.839 40.9765C305.063 37.645 300.732 35.202 295.846 33.6473C290.96 31.8706 285.963 30.9822 280.855 30.9822C273.525 30.9822 267.307 32.2037 262.199 34.6468C257.09 36.8677 252.871 39.866 249.539 43.6416C246.43 47.4172 244.098 51.415 242.543 55.6348C241.211 59.8546 240.544 64.0744 240.544 68.2942C240.544 75.6233 241.655 82.2862 243.876 88.2828C246.097 94.0572 249.317 99.1654 253.537 103.607L233.548 121.264C228.44 117.932 223.998 113.268 220.223 107.272C216.669 101.275 213.893 94.8346 211.894 87.9496C210.117 80.8426 209.229 74.5129 209.229 68.9605C209.229 56.9673 212.116 45.7515 217.891 35.313C223.887 24.6525 232.549 16.1018 243.876 9.66104C255.425 3.22028 269.417 -9.5938e-05 285.852 -9.5938e-05C299.844 -9.5938e-05 312.059 3.22028 322.497 9.66104C332.936 16.1018 341.042 24.6525 346.817 35.313C352.591 45.7515 355.479 57.3005 355.479 69.9599C355.479 81.0647 353.258 91.9473 348.816 102.608C344.374 113.268 338.377 123.818 330.826 134.256C323.497 144.695 315.279 155.022 306.173 165.239C297.29 175.233 288.406 185.338 279.522 195.555L265.53 190.891H362.808V221.873H213.227Z" fill="#CDE1FF" fill-opacity="0.4"/>
</svg>
