<svg width="136" height="48" viewBox="0 0 136 48" fill="none" xmlns="http://www.w3.org/2000/svg">
<path d="M85.4557 46.964C84.9771 46.964 84.509 46.8963 84.0513 46.7611C83.5936 46.6259 83.1775 46.4074 82.803 46.1058C82.4389 45.7937 82.1477 45.3828 81.9292 44.8731C81.7107 44.3529 81.6015 43.708 81.6015 42.9382C81.6015 42.1476 81.7055 41.487 81.9136 40.9565C82.1216 40.426 82.4077 40.0047 82.7718 39.6926C83.1359 39.3701 83.5468 39.1413 84.0045 39.006C84.4726 38.8708 84.9511 38.8032 85.44 38.8032C85.8562 38.8032 86.2723 38.8448 86.6884 38.928C87.1045 39.0008 87.4893 39.1153 87.843 39.2713V40.7381C87.4893 40.582 87.1357 40.4624 86.782 40.3792C86.4283 40.2855 86.059 40.2387 85.6741 40.2387C84.8627 40.2387 84.249 40.4416 83.8329 40.8473C83.4272 41.253 83.2243 41.9083 83.2243 42.8134C83.2243 43.7496 83.4168 44.4361 83.8017 44.8731C84.1969 45.2996 84.8367 45.5128 85.7209 45.5128C86.1058 45.5128 86.4803 45.466 86.8444 45.3724C87.2085 45.2683 87.5466 45.1435 87.8586 44.9979V46.4646C87.4945 46.6311 87.1149 46.7559 86.7196 46.8391C86.3243 46.9224 85.903 46.964 85.4557 46.964ZM92.6349 47.042C91.3657 47.042 90.4191 46.6831 89.795 45.9653C89.1812 45.2475 88.8743 44.2229 88.8743 42.8914C88.8743 41.4766 89.1916 40.4416 89.8262 39.7862C90.4711 39.1205 91.397 38.7876 92.6036 38.7876C93.4671 38.7876 94.1796 38.9488 94.7414 39.2713C95.3031 39.5834 95.7192 40.0463 95.9897 40.66C96.2601 41.2738 96.3954 42.0176 96.3954 42.8914C96.3954 44.2125 96.0677 45.2371 95.4123 45.9653C94.7674 46.6831 93.8415 47.042 92.6349 47.042ZM92.6192 45.6532C93.1498 45.6532 93.5711 45.5388 93.8832 45.31C94.1952 45.0707 94.4189 44.743 94.5541 44.3269C94.6998 43.9108 94.7726 43.4323 94.7726 42.8914C94.7726 42.288 94.6998 41.7835 94.5541 41.3778C94.4085 40.9721 94.1796 40.6704 93.8676 40.4728C93.5555 40.2647 93.1394 40.1607 92.6192 40.1607C92.0991 40.1607 91.683 40.2699 91.3709 40.4884C91.0589 40.7068 90.8352 41.0189 90.7 41.4246C90.5648 41.8303 90.4971 42.3192 90.4971 42.8914C90.4971 43.7548 90.6584 44.4309 90.9809 44.9199C91.3033 45.4088 91.8495 45.6532 92.6192 45.6532ZM97.8329 39.6146C98.0617 39.5002 98.3166 39.3961 98.5974 39.3025C98.8887 39.1985 99.1956 39.1101 99.5181 39.0372C99.8405 38.9644 100.168 38.9072 100.501 38.8656C100.834 38.824 101.156 38.8032 101.469 38.8032C102.207 38.8032 102.81 38.9072 103.279 39.1153C103.747 39.3129 104.095 39.625 104.324 40.0515C104.553 40.4676 104.667 40.9929 104.667 41.6275V46.8079H103.029V41.8459C103.029 41.6483 103.003 41.4558 102.951 41.2686C102.909 41.0709 102.821 40.8941 102.686 40.7381C102.561 40.5716 102.374 40.4416 102.124 40.348C101.885 40.2543 101.567 40.2075 101.172 40.2075C100.891 40.2075 100.6 40.2335 100.298 40.2855C100.007 40.3376 99.7313 40.4104 99.4713 40.504V46.8079H97.8329V39.6146ZM106.508 39.6146C106.736 39.5002 106.991 39.3961 107.272 39.3025C107.563 39.1985 107.87 39.1101 108.193 39.0372C108.515 38.9644 108.843 38.9072 109.176 38.8656C109.509 38.824 109.831 38.8032 110.143 38.8032C110.882 38.8032 111.485 38.9072 111.953 39.1153C112.421 39.3129 112.77 39.625 112.999 40.0515C113.228 40.4676 113.342 40.9929 113.342 41.6275V46.8079H111.704V41.8459C111.704 41.6483 111.678 41.4558 111.626 41.2686C111.584 41.0709 111.496 40.8941 111.36 40.7381C111.236 40.5716 111.048 40.4416 110.799 40.348C110.559 40.2543 110.242 40.2075 109.847 40.2075C109.566 40.2075 109.275 40.2335 108.973 40.2855C108.682 40.3376 108.406 40.4104 108.146 40.504V46.8079H106.508V39.6146ZM118.553 47.042C117.783 47.042 117.112 46.8859 116.54 46.5739C115.978 46.2618 115.541 45.7989 115.229 45.1851C114.927 44.5714 114.777 43.8224 114.777 42.9382C114.777 41.5755 115.094 40.5456 115.728 39.8486C116.373 39.1413 117.268 38.7876 118.412 38.7876C119.255 38.7876 119.936 38.9748 120.456 39.3493C120.977 39.7238 121.351 40.2491 121.58 40.9253C121.819 41.5911 121.934 42.3712 121.923 43.2659H115.76L115.713 42.0488H120.675L120.285 42.4389C120.254 41.6379 120.087 41.0553 119.785 40.6912C119.484 40.3168 119.01 40.1295 118.365 40.1295C117.949 40.1295 117.596 40.2179 117.304 40.3948C117.013 40.5612 116.789 40.8525 116.633 41.2686C116.488 41.6743 116.415 42.236 116.415 42.9538C116.415 43.8276 116.618 44.4934 117.024 44.9511C117.429 45.3984 118.027 45.622 118.818 45.622C119.172 45.622 119.499 45.5908 119.801 45.5284C120.113 45.466 120.399 45.388 120.659 45.2944C120.919 45.1903 121.143 45.0915 121.33 44.9979V46.5115C120.966 46.6675 120.555 46.7923 120.097 46.8859C119.64 46.99 119.125 47.042 118.553 47.042ZM126.787 46.964C126.309 46.964 125.841 46.8963 125.383 46.7611C124.925 46.6259 124.509 46.4074 124.135 46.1058C123.771 45.7937 123.479 45.3828 123.261 44.8731C123.042 44.3529 122.933 43.708 122.933 42.9382C122.933 42.1476 123.037 41.487 123.245 40.9565C123.453 40.426 123.739 40.0047 124.104 39.6926C124.468 39.3701 124.879 39.1413 125.336 39.006C125.804 38.8708 126.283 38.8032 126.772 38.8032C127.188 38.8032 127.604 38.8448 128.02 38.928C128.436 39.0008 128.821 39.1153 129.175 39.2713V40.7381C128.821 40.582 128.467 40.4624 128.114 40.3792C127.76 40.2855 127.391 40.2387 127.006 40.2387C126.194 40.2387 125.581 40.4416 125.165 40.8473C124.759 41.253 124.556 41.9083 124.556 42.8134C124.556 43.7496 124.748 44.4361 125.133 44.8731C125.529 45.2996 126.168 45.5128 127.053 45.5128C127.438 45.5128 127.812 45.466 128.176 45.3724C128.54 45.2683 128.878 45.1435 129.19 44.9979V46.4646C128.826 46.6311 128.447 46.7559 128.051 46.8391C127.656 46.9224 127.235 46.964 126.787 46.964ZM133.405 47.0108C132.697 47.0108 132.136 46.8235 131.72 46.449C131.314 46.0745 131.111 45.5232 131.111 44.795V40.3324H129.847V38.9748H131.111V36.7903H132.796V38.9748H134.7V40.3324H132.796V44.4674C132.796 44.8314 132.859 45.1071 132.984 45.2944C133.119 45.4712 133.363 45.5596 133.717 45.5596C133.894 45.5596 134.071 45.5388 134.247 45.4972C134.424 45.4452 134.575 45.3828 134.7 45.31V46.7611C134.513 46.8443 134.299 46.9067 134.06 46.9484C133.831 46.99 133.613 47.0108 133.405 47.0108Z" fill="white"/>
<path d="M37.0278 28.7235C36.568 28.7235 35.9459 28.6694 35.1615 28.5612C34.4042 28.4801 33.6199 28.3042 32.8085 28.0338C32.0241 27.7633 31.3345 27.3711 30.7394 26.8573L31.916 25.2345V35.9043H26.8447V11.8464C26.8447 10.9809 27.1017 10.2507 27.6156 9.65565C28.1565 9.06063 28.8597 8.58731 29.7252 8.2357C30.6177 7.85705 31.6049 7.58659 32.6868 7.42431C33.7957 7.23498 34.9452 7.14032 36.1352 7.14032C38.0826 7.14032 39.8135 7.4784 41.3282 8.15456C42.8428 8.83073 44.0463 9.98021 44.9389 11.603C45.8314 13.2258 46.2777 15.4301 46.2777 18.2159C46.2777 20.3255 45.9125 22.1782 45.1823 23.774C44.452 25.3426 43.3972 26.5597 42.0178 27.4252C40.6385 28.2907 38.9751 28.7235 37.0278 28.7235ZM35.7295 24.5448C36.9196 24.5448 37.9068 24.3149 38.6911 23.8551C39.5025 23.3953 40.0975 22.6921 40.4762 21.7455C40.8819 20.7718 41.0847 19.5547 41.0847 18.0942C41.0847 16.7959 40.936 15.6465 40.6385 14.6457C40.368 13.645 39.8541 12.8742 39.0968 12.3333C38.3666 11.7653 37.3253 11.4813 35.9729 11.4813C34.6477 11.4813 33.6334 11.6165 32.9302 11.887C32.254 12.1575 31.916 12.5361 31.916 13.0229V23.5305C32.511 23.8551 33.1466 24.112 33.8227 24.3014C34.4989 24.4636 35.1345 24.5448 35.7295 24.5448Z" fill="white"/>
<path d="M55.6014 28.764C54.1409 28.764 52.8968 28.6018 51.869 28.2772C50.8412 27.9797 49.854 27.6146 48.9074 27.1818V22.5569C49.5295 22.9626 50.1786 23.3547 50.8548 23.7334C51.558 24.085 52.3018 24.369 53.0861 24.5853C53.8975 24.8017 54.763 24.9099 55.6826 24.9099C56.7644 24.9099 57.5623 24.7071 58.0762 24.3014C58.6171 23.8686 58.8876 23.3547 58.8876 22.7597C58.8876 22.1917 58.6847 21.759 58.279 21.4615C57.8734 21.1369 57.3459 20.8664 56.6968 20.6501C56.0477 20.4337 55.358 20.2173 54.6278 20.001C53.9516 19.8387 53.2619 19.6223 52.5587 19.3518C51.8825 19.0814 51.2605 18.7162 50.6925 18.2565C50.1245 17.7967 49.6647 17.2152 49.3131 16.5119C48.9886 15.7817 48.8263 14.9027 48.8263 13.8749C48.8263 12.6578 49.0697 11.63 49.5565 10.7916C50.0434 9.95316 50.679 9.277 51.4633 8.76311C52.2477 8.24923 53.1132 7.8841 54.0598 7.66773C55.0064 7.42431 55.926 7.3026 56.8185 7.3026C58.3602 7.35669 59.6043 7.54602 60.551 7.87058C61.4976 8.16809 62.3901 8.56026 63.2286 9.0471L63.2691 13.2258C62.3225 12.7119 61.4029 12.2521 60.5104 11.8464C59.6179 11.4137 58.6036 11.1973 57.4677 11.1973C56.4128 11.1973 55.5879 11.3866 54.9929 11.7653C54.4249 12.1169 54.1409 12.6172 54.1409 13.2664C54.1409 13.8343 54.3167 14.2941 54.6683 14.6457C55.0199 14.9973 55.4797 15.2678 56.0477 15.4571C56.6157 15.6465 57.2378 15.8358 57.9139 16.0251C58.5901 16.2144 59.2933 16.4308 60.0236 16.6742C60.7538 16.8906 61.43 17.2152 62.052 17.6479C62.6741 18.0807 63.1745 18.6621 63.5531 19.3924C63.9588 20.0956 64.1617 21.0422 64.1617 22.2323C64.1346 23.801 63.7154 25.0722 62.904 26.0459C62.0926 26.9925 61.0243 27.6822 59.699 28.1149C58.4008 28.5477 57.0349 28.764 55.6014 28.764Z" fill="white"/>
<path d="M76.8857 28.6018C75.5334 28.6018 74.2351 28.4124 72.991 28.0338C71.7469 27.6551 70.6379 27.0466 69.6643 26.2081C68.6906 25.3697 67.9198 24.2878 67.3518 22.9626C66.7838 21.6373 66.4998 20.028 66.4998 18.1347C66.4998 16.1603 66.7703 14.4835 67.3112 13.1041C67.8521 11.7247 68.5959 10.6023 69.5426 9.73679C70.4892 8.84425 71.5846 8.20866 72.8287 7.83001C74.0999 7.42431 75.4387 7.22146 76.8451 7.22146C77.927 7.22146 79.0359 7.32965 80.1719 7.54602C81.3078 7.76239 82.3221 8.07343 83.2146 8.47912V12.9418C82.295 12.5361 81.3754 12.2115 80.4558 11.9681C79.5363 11.6977 78.5896 11.5624 77.616 11.5624C75.7227 11.5624 74.2487 12.0357 73.1938 12.9824C72.139 13.929 71.6116 15.4842 71.6116 17.6479C71.6116 19.8657 72.0849 21.5156 73.0316 22.5974C74.0052 23.6793 75.601 24.2202 77.8188 24.2202C78.8195 24.2202 79.7932 24.0715 80.7398 23.774C81.6865 23.4494 82.5249 23.0978 83.2552 22.7191V27.2224C82.3085 27.6822 81.3213 28.0203 80.2936 28.2366C79.2658 28.4801 78.1298 28.6018 76.8857 28.6018Z" fill="white"/>
<path d="M94.2505 28.764C93.1146 28.764 92.0327 28.6559 91.005 28.4395C89.9772 28.2231 89.0576 27.8715 88.2462 27.3847C87.4348 26.8708 86.7857 26.1811 86.2989 25.3156C85.8391 24.4231 85.6092 23.3142 85.6092 21.9889C85.6092 20.6095 85.8932 19.4465 86.4611 18.4999C87.0291 17.5262 87.854 16.7959 88.9359 16.3091C90.0448 15.7952 91.3971 15.5383 92.9929 15.5383C93.9665 15.5383 94.8726 15.6329 95.7111 15.8223C96.5495 15.9845 97.3068 16.2144 97.983 16.5119C98.6591 16.8095 99.2136 17.134 99.6463 17.4856L100.011 20.3661C99.4435 19.9874 98.7132 19.6899 97.8207 19.4735C96.9552 19.2301 96.0086 19.1084 94.9808 19.1084C93.5473 19.1084 92.479 19.3383 91.7758 19.7981C91.0726 20.2579 90.721 20.9746 90.721 21.9483C90.721 22.6245 90.9103 23.1924 91.2889 23.6522C91.6676 24.085 92.1544 24.4231 92.7495 24.6665C93.3445 24.8829 93.9665 24.991 94.6157 24.991C96.1032 24.991 97.1716 24.8964 97.8207 24.7071C98.4968 24.4907 98.8349 24.0444 98.8349 23.3683V15.2949C98.8349 13.9696 98.4157 13.0094 97.5773 12.4144C96.7388 11.7923 95.5623 11.4813 94.0477 11.4813C92.8847 11.4813 91.6946 11.6841 90.4775 12.0898C89.2604 12.4685 88.2732 12.9689 87.5159 13.5909V8.92539C88.2462 8.4656 89.3416 8.0599 90.8021 7.7083C92.2626 7.35669 93.8313 7.18089 95.5082 7.18089C96.2114 7.18089 96.9552 7.24851 97.7395 7.38374C98.5239 7.51897 99.2677 7.73534 99.9709 8.03286C100.701 8.33037 101.364 8.74959 101.959 9.29052C102.554 9.8044 103.027 10.467 103.379 11.2784C103.73 12.0628 103.906 13.0229 103.906 14.1589V23.8551C103.906 25.1263 103.5 26.127 102.689 26.8573C101.878 27.5605 100.755 28.0473 99.3218 28.3178C97.8883 28.6153 96.1979 28.764 94.2505 28.764Z" fill="white"/>
<path d="M113.497 28.1555H108.385V3.05176e-05H113.497V28.1555Z" fill="white"/>
<path d="M126.951 28.764C124.923 28.764 123.151 28.3583 121.636 27.5469C120.122 26.7085 118.945 25.4914 118.107 23.8957C117.268 22.2999 116.849 20.3796 116.849 18.1347C116.849 14.5646 117.701 11.8464 119.405 9.98021C121.136 8.08695 123.557 7.14032 126.667 7.14032C128.912 7.14032 130.711 7.62716 132.063 8.60083C133.442 9.57451 134.443 10.9674 135.065 12.7795C135.714 14.5646 136.025 16.7013 135.998 19.1896H120.176L119.77 15.7006H131.901L130.927 17.1611C130.873 15.0244 130.494 13.4963 129.791 12.5767C129.115 11.63 128.019 11.1567 126.505 11.1567C125.585 11.1567 124.774 11.3731 124.071 11.8059C123.394 12.2115 122.867 12.9012 122.488 13.8749C122.137 14.8486 121.961 16.1874 121.961 17.8913C121.961 20.001 122.461 21.6237 123.462 22.7597C124.463 23.8686 125.991 24.4231 128.046 24.4231C128.885 24.4231 129.683 24.3419 130.44 24.1796C131.224 23.9903 131.941 23.7739 132.59 23.5305C133.266 23.2871 133.834 23.0572 134.294 22.8408V27.3847C133.348 27.7904 132.266 28.1149 131.049 28.3583C129.859 28.6288 128.493 28.764 126.951 28.764Z" fill="white"/>
<path d="M11.4089 30.227C7.82555 30.227 5.02824 29.2457 3.01694 27.2832C1.00565 25.3206 0 22.5383 0 18.9364V7.42993L1.95366 8.05998C2.91554 8.37019 3.9506 8.37019 4.91248 8.05998L6.86614 7.42993V18.7286C6.86614 20.8066 7.27071 22.2959 8.07986 23.1963C8.91212 24.0968 10.0449 24.5471 11.4782 24.5471C12.9116 24.5471 14.0328 24.0968 14.842 23.1963C15.6511 22.2959 16.0557 20.8066 16.0557 18.7286V15.3479H19.4367H22.8178V18.9364C22.8178 22.5383 21.8121 25.3206 19.8008 27.2832C17.7896 29.2457 14.9922 30.227 11.4089 30.227Z" fill="white"/>
<path d="M15.9258 9.82258V14.0906L18.1735 12.5688C18.8742 12.0944 19.7914 12.0879 20.4986 12.5523L22.8414 14.0906V9.82258L19.3306 7.38452L15.9258 9.82258Z" fill="#00F0FF"/>
</svg>
