<svg width="56" height="56" viewBox="0 0 56 56" fill="none" xmlns="http://www.w3.org/2000/svg">
<rect width="56" height="56" rx="28" fill="#31C5D9" fill-opacity="0.2"/>
<g clip-path="url(#clip0_663_92)">
<path fill-rule="evenodd" clip-rule="evenodd" d="M40.558 25.8922C40.7152 25.7954 40.8399 25.6539 40.9163 25.4859C40.9927 25.3178 41.0173 25.1308 40.987 24.9487L39.7613 17.6316C39.7409 17.5101 39.6965 17.3938 39.6307 17.2896C39.565 17.1853 39.4791 17.0952 39.3781 17.0245C39.2772 16.9538 39.1632 16.904 39.0427 16.8778C38.9223 16.8516 38.7979 16.8496 38.6767 16.872L31.731 18.1627C31.5531 18.1959 31.3888 18.2804 31.2582 18.4057C31.1277 18.531 31.0366 18.6917 30.9961 18.868C30.9557 19.0444 30.9677 19.2288 31.0306 19.3984C31.0935 19.5681 31.2046 19.7157 31.3503 19.823L34.4183 22.085L29.1328 29.6343L24.308 26.2506C24.056 26.0742 23.7443 26.0051 23.4413 26.0583C23.1384 26.1116 22.8689 26.283 22.6923 26.5347L15.208 37.217C15.1205 37.3419 15.0586 37.4828 15.0256 37.6316C14.9926 37.7804 14.9892 37.9343 15.0157 38.0844C15.0422 38.2345 15.0979 38.378 15.1798 38.5065C15.2617 38.6351 15.3682 38.7462 15.493 38.8337C15.7452 39.0103 16.0572 39.0794 16.3604 39.026C16.5105 38.9995 16.654 38.9437 16.7825 38.8618C16.9111 38.7799 17.0222 38.6735 17.1097 38.5486L23.9254 28.8172L28.7503 32.2009C29.0025 32.3771 29.3143 32.446 29.6173 32.3923C29.9203 32.3387 30.1896 32.167 30.366 31.9149L36.2847 23.4649L39.518 25.8495C39.667 25.9593 39.8455 26.022 40.0305 26.0296C40.2155 26.0372 40.3985 25.9894 40.5561 25.8922" fill="#31C5D9"/>
</g>
<defs>
<clipPath id="clip0_663_92">
<rect width="26" height="26" fill="white" transform="translate(15 15)"/>
</clipPath>
</defs>
</svg>
