<svg width="56" height="56" viewBox="0 0 56 56" fill="none" xmlns="http://www.w3.org/2000/svg">
<path d="M35.8291 16.0094C35.8291 16.7392 35.9729 17.4619 36.2522 18.1362C36.5315 18.8105 36.9408 19.4232 37.4569 19.9393C37.973 20.4554 38.5857 20.8647 39.26 21.144C39.9343 21.4233 40.657 21.5671 41.3868 21.5671C42.1167 21.5671 42.8394 21.4233 43.5137 21.144C44.188 20.8647 44.8006 20.4554 45.3167 19.9393C45.8328 19.4232 46.2422 18.8105 46.5215 18.1362C46.8008 17.4619 46.9445 16.7392 46.9445 16.0094C46.9445 14.5354 46.359 13.1218 45.3167 12.0795C44.2744 11.0372 42.8608 10.4517 41.3868 10.4517C39.9128 10.4517 38.4992 11.0372 37.4569 12.0795C36.4146 13.1218 35.8291 14.5354 35.8291 16.0094Z" stroke="#31C5D9" stroke-width="3.42857" stroke-linecap="round" stroke-linejoin="round"/>
<path d="M33.0505 32.6871V29.91C33.0505 27.6981 33.9292 25.5767 35.4932 24.0127C37.0573 22.4486 39.1786 21.57 41.3905 21.57C43.6024 21.57 45.7237 22.4486 47.2878 24.0127C48.8518 25.5767 49.7305 27.6981 49.7305 29.91V32.6871M26.6288 32.694H49.7305M16.3568 23.2414C17.914 23.2414 19.4074 22.6228 20.5085 21.5217C21.6096 20.4206 22.2282 18.9272 22.2282 17.37C22.2282 15.8128 21.6096 14.3193 20.5085 13.2182C19.4074 12.1171 17.914 11.4985 16.3568 11.4985C14.7996 11.4985 13.3062 12.1171 12.2051 13.2182C11.1039 14.3193 10.4854 15.8128 10.4854 17.37C10.4854 18.9272 11.1039 20.4206 12.2051 21.5217C13.3062 22.6228 14.7996 23.2414 16.3568 23.2414Z" stroke="#31C5D9" stroke-width="3.42857" stroke-linecap="round" stroke-linejoin="round"/>
<path d="M26.6285 33.5154C26.6285 30.7907 25.5461 28.1775 23.6194 26.2508C21.6927 24.3241 19.0795 23.2417 16.3548 23.2417C13.63 23.2417 11.0169 24.3241 9.09016 26.2508C7.16346 28.1775 6.08105 30.7907 6.08105 33.5154V37.9177H10.4868L11.9542 49.6571H20.7588L22.2262 37.9177H26.6285V33.5154Z" stroke="#31C5D9" stroke-width="3.42857" stroke-linecap="round" stroke-linejoin="round"/>
</svg>
