<svg width="56" height="56" viewBox="0 0 56 56" fill="none" xmlns="http://www.w3.org/2000/svg">
<path d="M26.625 14.25C28.3294 14.25 29.9336 14.5723 31.4375 15.2168C32.9414 15.8613 34.252 16.7493 35.3691 17.8809C36.4863 19.0124 37.3672 20.3229 38.0117 21.8125C38.6562 23.3021 38.9857 24.9062 39 26.625C39 27.5273 38.9427 28.3724 38.8281 29.1602C38.7135 29.9479 38.5345 30.6999 38.291 31.416C38.0475 32.1322 37.7324 32.8411 37.3457 33.543C36.959 34.2448 36.5007 34.9609 35.9707 35.6914C35.5553 36.2643 35.1901 36.7799 34.875 37.2383C34.5599 37.6966 34.3021 38.1549 34.1016 38.6133C33.901 39.0716 33.7507 39.5729 33.6504 40.1172C33.5501 40.6615 33.5 41.2988 33.5 42.0293V45.875C33.5 46.4479 33.3926 46.985 33.1777 47.4863C32.9629 47.9876 32.6693 48.4245 32.2969 48.7969C31.9245 49.1693 31.4876 49.4629 30.9863 49.6777C30.485 49.8926 29.9479 50 29.375 50H23.875C23.3021 50 22.765 49.8926 22.2637 49.6777C21.7624 49.4629 21.3255 49.1693 20.9531 48.7969C20.5807 48.4245 20.2871 47.9876 20.0723 47.4863C19.8574 46.985 19.75 46.4479 19.75 45.875V42.0078C19.75 41.2773 19.6999 40.6471 19.5996 40.1172C19.4993 39.5872 19.349 39.0931 19.1484 38.6348C18.9479 38.1764 18.6901 37.7109 18.375 37.2383C18.0599 36.7656 17.6947 36.25 17.2793 35.6914C16.7493 34.9609 16.2982 34.252 15.9258 33.5645C15.5534 32.877 15.2383 32.168 14.9805 31.4375C14.7227 30.707 14.5365 29.9479 14.4219 29.1602C14.3073 28.3724 14.25 27.5273 14.25 26.625C14.25 24.9206 14.5723 23.3164 15.2168 21.8125C15.8613 20.3086 16.7493 18.998 17.8809 17.8809C19.0124 16.7637 20.3229 15.8828 21.8125 15.2383C23.3021 14.5938 24.9062 14.2643 26.625 14.25ZM30.75 45.875V44.5H22.5V45.875C22.5 46.2474 22.6361 46.5697 22.9082 46.8418C23.1803 47.1139 23.5026 47.25 23.875 47.25H29.375C29.7474 47.25 30.0697 47.1139 30.3418 46.8418C30.6139 46.5697 30.75 46.2474 30.75 45.875ZM36.25 26.625C36.25 25.293 35.9993 24.0469 35.498 22.8867C34.9967 21.7266 34.3092 20.7025 33.4355 19.8145C32.5618 18.9264 31.5449 18.2389 30.3848 17.752C29.2246 17.265 27.9714 17.0143 26.625 17C25.293 17 24.0469 17.2507 22.8867 17.752C21.7266 18.2533 20.7025 18.9408 19.8145 19.8145C18.9264 20.6882 18.2389 21.7051 17.752 22.8652C17.265 24.0254 17.0143 25.2786 17 26.625C17 27.8997 17.1289 28.9954 17.3867 29.9121C17.6445 30.8288 17.9811 31.6452 18.3965 32.3613C18.8118 33.0775 19.2487 33.7507 19.707 34.3809C20.1654 35.0111 20.6022 35.6699 21.0176 36.3574C21.4329 37.0449 21.7767 37.8184 22.0488 38.6777C22.321 39.5371 22.4714 40.5612 22.5 41.75H30.75C30.7643 40.5612 30.9076 39.5443 31.1797 38.6992C31.4518 37.8542 31.7956 37.0807 32.2109 36.3789C32.6263 35.6771 33.0632 35.0182 33.5215 34.4023C33.9798 33.7865 34.4167 33.1133 34.832 32.3828C35.2474 31.6523 35.584 30.8288 35.8418 29.9121C36.0996 28.9954 36.2357 27.8997 36.25 26.625ZM26.625 11.5C26.2526 11.5 25.9303 11.3639 25.6582 11.0918C25.3861 10.8197 25.25 10.4974 25.25 10.125V7.375C25.25 7.0026 25.3861 6.68034 25.6582 6.4082C25.9303 6.13607 26.2526 6 26.625 6C26.9974 6 27.3197 6.13607 27.5918 6.4082C27.8639 6.68034 28 7.0026 28 7.375V10.125C28 10.4974 27.8639 10.8197 27.5918 11.0918C27.3197 11.3639 26.9974 11.5 26.625 11.5ZM10.125 25.9375H7.375C7.0026 25.9375 6.68034 25.8014 6.4082 25.5293C6.13607 25.2572 6 24.9349 6 24.5625C6 24.1901 6.13607 23.8678 6.4082 23.5957C6.68034 23.3236 7.0026 23.1875 7.375 23.1875H10.125C10.4974 23.1875 10.8197 23.3236 11.0918 23.5957C11.3639 23.8678 11.5 24.1901 11.5 24.5625C11.5 24.9349 11.3639 25.2572 11.0918 25.5293C10.8197 25.8014 10.4974 25.9375 10.125 25.9375ZM11.2637 31.5449C11.6361 31.5449 11.9583 31.681 12.2305 31.9531C12.5026 32.2253 12.6387 32.5547 12.6387 32.9414C12.6387 33.2279 12.5599 33.4785 12.4023 33.6934C12.2448 33.9082 12.0299 34.0801 11.7578 34.209C11.6003 34.2806 11.3854 34.3737 11.1133 34.4883C10.8411 34.6029 10.5475 34.7246 10.2324 34.8535C9.91732 34.9824 9.63086 35.0898 9.37305 35.1758C9.11523 35.2617 8.88607 35.3118 8.68555 35.3262C8.31315 35.3262 7.99089 35.1901 7.71875 34.918C7.44661 34.6458 7.31055 34.3164 7.31055 33.9297C7.31055 33.6432 7.38932 33.3926 7.54688 33.1777C7.70443 32.9629 7.91927 32.791 8.19141 32.6621C8.34896 32.6048 8.5638 32.5117 8.83594 32.3828C9.10807 32.2539 9.40169 32.1322 9.7168 32.0176C10.0319 31.903 10.3184 31.7956 10.5762 31.6953C10.834 31.5951 11.0632 31.5449 11.2637 31.5449ZM14.5293 17.6875C14.5293 18.0599 14.3932 18.3822 14.1211 18.6543C13.849 18.9264 13.5267 19.0625 13.1543 19.0625C12.8965 19.0625 12.6602 18.998 12.4453 18.8691L10.1035 17.4297C9.90299 17.3008 9.74544 17.1361 9.63086 16.9355C9.51628 16.735 9.45182 16.5059 9.4375 16.248C9.4375 15.8757 9.57357 15.5534 9.8457 15.2812C10.1178 15.0091 10.4401 14.873 10.8125 14.873C11.0417 14.873 11.278 14.9447 11.5215 15.0879L13.8848 16.5059C14.0853 16.6204 14.2428 16.7852 14.3574 17C14.472 17.2148 14.5293 17.444 14.5293 17.6875ZM16.3125 9.78125C16.3125 9.40885 16.4486 9.08659 16.7207 8.81445C16.9928 8.54232 17.3151 8.40625 17.6875 8.40625C17.931 8.40625 18.1602 8.4707 18.375 8.59961C18.5898 8.72852 18.7617 8.90039 18.8906 9.11523L20.2227 11.5215C20.3372 11.722 20.3945 11.9368 20.3945 12.166C20.3945 12.5527 20.2585 12.8822 19.9863 13.1543C19.7142 13.4264 19.3919 13.5625 19.0195 13.5625C18.776 13.5625 18.5469 13.498 18.332 13.3691C18.1172 13.2402 17.9453 13.0684 17.8164 12.8535L16.4844 10.4473C16.3698 10.2467 16.3125 10.0247 16.3125 9.78125ZM45.875 23.1875C46.2474 23.1875 46.5697 23.3236 46.8418 23.5957C47.1139 23.8678 47.25 24.1901 47.25 24.5625C47.25 24.9349 47.1139 25.2572 46.8418 25.5293C46.5697 25.8014 46.2474 25.9375 45.875 25.9375H43.125C42.7526 25.9375 42.4303 25.8014 42.1582 25.5293C41.8861 25.2572 41.75 24.9349 41.75 24.5625C41.75 24.1901 41.8861 23.8678 42.1582 23.5957C42.4303 23.3236 42.7526 23.1875 43.125 23.1875H45.875ZM45.918 33.9512C45.918 34.3236 45.7819 34.6458 45.5098 34.918C45.2376 35.1901 44.9154 35.3262 44.543 35.3262C44.3854 35.3262 44.1706 35.2832 43.8984 35.1973C43.6263 35.1113 43.3327 34.9967 43.0176 34.8535C42.7025 34.7103 42.416 34.5885 42.1582 34.4883C41.9004 34.388 41.6784 34.2878 41.4922 34.1875C41.2344 34.0729 41.0267 33.901 40.8691 33.6719C40.7116 33.4427 40.6257 33.1849 40.6113 32.8984C40.6113 32.5117 40.7474 32.1895 41.0195 31.9316C41.2917 31.6738 41.6211 31.5378 42.0078 31.5234C42.1797 31.5234 42.4017 31.5736 42.6738 31.6738C42.946 31.7741 43.2324 31.8887 43.5332 32.0176C43.834 32.1465 44.1204 32.2754 44.3926 32.4043C44.6647 32.5332 44.8867 32.6263 45.0586 32.6836C45.3164 32.7982 45.5241 32.9629 45.6816 33.1777C45.8392 33.3926 45.918 33.6504 45.918 33.9512ZM40.0957 19.0625C39.7233 19.0625 39.401 18.9264 39.1289 18.6543C38.8568 18.3822 38.7207 18.0599 38.7207 17.6875C38.7207 17.444 38.778 17.2148 38.8926 17C39.0072 16.7852 39.1647 16.6204 39.3652 16.5059L41.7285 15.0879C41.972 14.9447 42.2083 14.873 42.4375 14.873C42.8099 14.873 43.1322 15.0091 43.4043 15.2812C43.6764 15.5534 43.8125 15.8757 43.8125 16.248C43.8125 16.4915 43.7552 16.7135 43.6406 16.9141C43.526 17.1146 43.3613 17.2865 43.1465 17.4297L40.8047 18.8691C40.5898 18.998 40.3535 19.0625 40.0957 19.0625ZM32.8555 12.166C32.8555 11.9368 32.9128 11.722 33.0273 11.5215L34.3594 9.11523C34.474 8.90039 34.6387 8.72852 34.8535 8.59961C35.0684 8.4707 35.3047 8.40625 35.5625 8.40625C35.9349 8.40625 36.2572 8.54232 36.5293 8.81445C36.8014 9.08659 36.9375 9.40885 36.9375 9.78125C36.9375 10.0247 36.8802 10.2467 36.7656 10.4473L35.4336 12.8535C35.319 13.0684 35.1543 13.2402 34.9395 13.3691C34.7246 13.498 34.4883 13.5625 34.2305 13.5625C33.8581 13.5625 33.5358 13.4264 33.2637 13.1543C32.9915 12.8822 32.8555 12.5527 32.8555 12.166Z" fill="#31C5D9"/>
</svg>
