<svg width="56" height="56" viewBox="0 0 56 56" fill="none" xmlns="http://www.w3.org/2000/svg">
<rect width="56" height="56" rx="28" fill="#31C5D9" fill-opacity="0.2"/>
<g clip-path="url(#clip0_663_84)">
<path d="M27.9993 26.2166C26.8169 26.2166 25.6829 25.7469 24.8468 24.9108C24.0107 24.0747 23.541 22.9407 23.541 21.7583C23.541 20.5758 24.0107 19.4418 24.8468 18.6057C25.6829 17.7696 26.8169 17.2999 27.9993 17.2999C29.1818 17.2999 30.3158 17.7696 31.1519 18.6057C31.988 19.4418 32.4577 20.5758 32.4577 21.7583C32.4577 22.9407 31.988 24.0747 31.1519 24.9108C30.3158 25.7469 29.1818 26.2166 27.9993 26.2166ZM27.9993 19.0833C26.5192 19.0833 25.3243 20.2781 25.3243 21.7583C25.3243 23.2384 26.5192 24.4333 27.9993 24.4333C29.4795 24.4333 30.6743 23.2384 30.6743 21.7583C30.6743 20.2781 29.4795 19.0833 27.9993 19.0833Z" fill="#31C5D9"/>
<path d="M38.7 33.3499C38.2007 33.3499 37.8083 32.9576 37.8083 32.4583C37.8083 31.9589 38.2007 31.5666 38.7 31.5666C39.1993 31.5666 39.5917 31.1743 39.5917 30.6749C39.5917 29.4925 39.122 28.3585 38.2859 27.5224C37.4498 26.6863 36.3158 26.2166 35.1333 26.2166H33.35C32.8507 26.2166 32.4583 25.8243 32.4583 25.3249C32.4583 24.8256 32.8507 24.4333 33.35 24.4333C34.8302 24.4333 36.025 23.2384 36.025 21.7583C36.025 20.2781 34.8302 19.0833 33.35 19.0833C32.8507 19.0833 32.4583 18.6909 32.4583 18.1916C32.4583 17.6923 32.8507 17.2999 33.35 17.2999C34.5324 17.2999 35.6664 17.7696 36.5025 18.6057C37.3386 19.4418 37.8083 20.5758 37.8083 21.7583C37.8083 22.8639 37.416 23.8626 36.7383 24.6473C39.3955 25.3606 41.375 27.7859 41.375 30.6749C41.375 32.1551 40.1802 33.3499 38.7 33.3499ZM17.3 33.3499C15.8198 33.3499 14.625 32.1551 14.625 30.6749C14.625 27.7859 16.5867 25.3606 19.2617 24.6473C18.6018 23.8626 18.1917 22.8639 18.1917 21.7583C18.1917 20.5758 18.6614 19.4418 19.4975 18.6057C20.3336 17.7696 21.4676 17.2999 22.65 17.2999C23.1493 17.2999 23.5417 17.6923 23.5417 18.1916C23.5417 18.6909 23.1493 19.0833 22.65 19.0833C21.1698 19.0833 19.975 20.2781 19.975 21.7583C19.975 23.2384 21.1698 24.4333 22.65 24.4333C23.1493 24.4333 23.5417 24.8256 23.5417 25.3249C23.5417 25.8243 23.1493 26.2166 22.65 26.2166H20.8667C19.6842 26.2166 18.5502 26.6863 17.7141 27.5224C16.878 28.3585 16.4083 29.4925 16.4083 30.6749C16.4083 31.1743 16.8007 31.5666 17.3 31.5666C17.7993 31.5666 18.1917 31.9589 18.1917 32.4583C18.1917 32.9576 17.7993 33.3499 17.3 33.3499ZM33.35 38.6999H22.65C21.1698 38.6999 19.975 37.5051 19.975 36.0249V34.2416C19.975 30.7998 22.7748 27.9999 26.2167 27.9999H29.7833C33.2252 27.9999 36.025 30.7998 36.025 34.2416V36.0249C36.025 37.5051 34.8302 38.6999 33.35 38.6999ZM26.2167 29.7833C25.0342 29.7833 23.9002 30.253 23.0641 31.0891C22.228 31.9252 21.7583 33.0592 21.7583 34.2416V36.0249C21.7583 36.5243 22.1507 36.9166 22.65 36.9166H33.35C33.8493 36.9166 34.2417 36.5243 34.2417 36.0249V34.2416C34.2417 33.0592 33.7719 31.9252 32.9359 31.0891C32.0998 30.253 30.9658 29.7833 29.7833 29.7833H26.2167Z" fill="#31C5D9"/>
</g>
<defs>
<clipPath id="clip0_663_84">
<rect width="26.75" height="28.5333" fill="white" transform="translate(14.625 13.7333)"/>
</clipPath>
</defs>
</svg>
