<svg width="56" height="56" viewBox="0 0 56 56" fill="none" xmlns="http://www.w3.org/2000/svg">
<g clip-path="url(#clip0_663_203)">
<path d="M46.0781 11.9056C45.5946 11.5928 45.0417 11.4036 44.4679 11.3546C43.8941 11.3055 43.3171 11.3982 42.7875 11.6244L25.4344 18.4588C25.024 18.6274 24.5843 18.7134 24.1406 18.7119H13.0312C12.0988 18.7119 11.2046 19.0823 10.5453 19.7416C9.88602 20.4009 9.51562 21.2951 9.51562 22.2275V22.5088H6V30.9463H9.51562V31.3119C9.53766 32.2296 9.91775 33.1023 10.5747 33.7435C11.2316 34.3846 12.1133 34.7434 13.0312 34.7432L17.25 43.6869C17.5357 44.2892 17.9854 44.7987 18.5476 45.1569C19.1097 45.5151 19.7615 45.7074 20.4281 45.7119H22.2C23.1275 45.7045 24.0145 45.3308 24.6678 44.6723C25.321 44.0138 25.6875 43.1238 25.6875 42.1963V35.0807L42.7875 41.915C43.2087 42.0805 43.6569 42.1663 44.1094 42.1681C44.8114 42.1552 45.4949 41.9404 46.0781 41.5494C46.5407 41.2371 46.9223 40.8191 47.1913 40.33C47.4603 39.8409 47.6089 39.2948 47.625 38.7369V14.8025C47.6224 14.2302 47.4802 13.6672 47.2106 13.1624C46.941 12.6575 46.5523 12.2261 46.0781 11.9056ZM22.1719 22.2275V31.3119H13.0312V22.2275H22.1719ZM22.1719 42.1963H20.4L16.9406 34.7432H22.1719V42.1963ZM26.7281 31.7338C26.3941 31.5632 26.0459 31.4221 25.6875 31.3119V22.0306C26.0424 21.9569 26.3905 21.8534 26.7281 21.7213L44.1094 14.8025V38.6525L26.7281 31.7338ZM47.7094 23.2119V30.2431C48.6418 30.2431 49.536 29.8728 50.1953 29.2134C50.8546 28.5541 51.225 27.6599 51.225 26.7275C51.225 25.7951 50.8546 24.9009 50.1953 24.2416C49.536 23.5823 48.6418 23.2119 47.7094 23.2119Z" fill="#31C5D9"/>
</g>
<defs>
<clipPath id="clip0_663_203">
<rect width="45" height="45" fill="white" transform="translate(6 6)"/>
</clipPath>
</defs>
</svg>
