<svg width="56" height="56" viewBox="0 0 56 56" fill="none" xmlns="http://www.w3.org/2000/svg">
<path d="M28 18.6655C28 14.9995 25 11.9995 21.334 11.9995H8V35.9995H21.416C28 35.9995 28 42.6675 28 42.6675M28 18.6655C28 14.9975 31 11.9995 34.666 11.9995H48V35.9995H34.666C28 35.9995 28 42.6675 28 42.6675M28 18.6655V42.6675M31.75 44.9155C32.1673 44.0512 32.8174 43.3205 33.6272 42.8054C34.4369 42.2902 35.3743 42.0112 36.334 41.9995H46M24.25 44.9155C23.8403 44.0454 23.192 43.3094 22.3806 42.7932C21.5691 42.277 20.6277 42.0018 19.666 41.9995H10" stroke="#31C5D9" stroke-width="3" stroke-miterlimit="10" stroke-linecap="round" stroke-linejoin="round"/>
</svg>
