<svg width="56" height="56" viewBox="0 0 56 56" fill="none" xmlns="http://www.w3.org/2000/svg">
<path d="M46 28C46 20.628 45.762 15.475 45.537 12.248C45.36 9.698 43.456 7.709 40.91 7.486C38.121 7.24 33.885 7 28 7C22.115 7 17.88 7.24 15.09 7.486C12.544 7.709 10.64 9.698 10.463 12.248C10.238 15.475 10 20.628 10 28M46 28C46 35.372 45.762 40.525 45.537 43.752C45.36 46.302 43.456 48.291 40.91 48.514C38.12 48.76 33.885 49 28 49C22.115 49 17.879 48.76 15.09 48.514C12.544 48.291 10.64 46.302 10.463 43.752C10.238 40.525 10 35.372 10 28M46 28H10" stroke="#31C5D9" stroke-width="3" stroke-linecap="round" stroke-linejoin="round"/>
<path d="M45.45 44.418C41.373 40.348 38.563 38.108 36.806 36.897C35.386 35.917 33.634 36.077 32.311 37.187C30.768 38.48 28.281 40.718 24.5 44.5C23.0705 45.925 21.6646 47.3735 20.283 48.845M17 21H39M17 14.5H29M22 37C22 37.7956 21.6839 38.5587 21.1213 39.1213C20.5587 39.6839 19.7956 40 19 40C18.2044 40 17.4413 39.6839 16.8787 39.1213C16.3161 38.5587 16 37.7956 16 37C16 36.2044 16.3161 35.4413 16.8787 34.8787C17.4413 34.3161 18.2044 34 19 34C19.7956 34 20.5587 34.3161 21.1213 34.8787C21.6839 35.4413 22 36.2044 22 37Z" stroke="#31C5D9" stroke-width="3" stroke-linecap="round" stroke-linejoin="round"/>
</svg>
