<svg width="56" height="56" viewBox="0 0 56 56" fill="none" xmlns="http://www.w3.org/2000/svg">
<rect width="56" height="56" rx="28" fill="#31C5D9" fill-opacity="0.2"/>
<g clip-path="url(#clip0_663_100)">
<path d="M41.0135 25.9302L38.3842 20.6697C38.2873 20.476 38.1533 20.3034 37.9897 20.1616C37.8261 20.0198 37.6362 19.9116 37.4308 19.8432C37.2254 19.7748 37.0085 19.7475 36.7926 19.7629C36.5766 19.7783 36.3658 19.8361 36.1722 19.933L33.6099 21.2137L28.2123 19.7857C28.0738 19.7497 27.9284 19.7497 27.7899 19.7857L22.3923 21.2137L19.83 19.933C19.6364 19.8361 19.4256 19.7783 19.2097 19.7629C18.9937 19.7475 18.7768 19.7748 18.5714 19.8432C18.366 19.9116 18.1761 20.0198 18.0125 20.1616C17.8489 20.3034 17.7149 20.476 17.618 20.6697L14.9887 25.9292C14.8919 26.1228 14.8341 26.3336 14.8186 26.5496C14.8032 26.7655 14.8305 26.9824 14.8989 27.1878C14.9673 27.3932 15.0755 27.5831 15.2173 27.7467C15.3591 27.9103 15.5318 28.0444 15.7254 28.1412L18.5071 29.5331L24.2241 33.6161C24.3084 33.6759 24.4031 33.7196 24.5033 33.7449L31.0971 35.3933C31.2352 35.4279 31.3799 35.4262 31.5171 35.3883C31.6543 35.3504 31.7794 35.2776 31.8801 35.177L37.5538 29.5022L40.2758 28.1412C40.6666 27.9456 40.9637 27.6028 41.1018 27.1882C41.2399 26.7736 41.2078 26.3212 41.0124 25.9302H41.0135ZM35.3583 29.3683L31.8131 26.5288C31.6543 26.4016 31.454 26.3377 31.2509 26.3493C31.0478 26.3609 30.8561 26.4472 30.7128 26.5917C28.8779 28.44 26.8328 28.2061 25.5284 27.3819L29.9833 23.0548H33.2606L36.064 28.6605L35.3583 29.3683ZM19.0923 21.4063L21.2013 22.4593L18.5669 27.7188L16.462 26.6669L19.0923 21.4063ZM31.0435 33.68L25.0566 32.184L19.9876 28.5636L22.8724 22.7941L28.0011 21.4352L29.0108 21.702L24.3745 26.2022L24.3663 26.2115C24.1918 26.386 24.0587 26.5975 23.9768 26.8304C23.8949 27.0632 23.8664 27.3114 23.8933 27.5568C23.9202 27.8021 24.0018 28.0383 24.1322 28.2479C24.2626 28.4574 24.4383 28.6351 24.6465 28.7676C26.7648 30.1204 29.3209 29.9009 31.334 28.2525L34.1827 30.5407L31.0435 33.68ZM37.4312 27.7178L34.8019 22.4634L36.9099 21.4063L39.5402 26.6669L37.4312 27.7178ZM28.3905 37.2653C28.346 37.4435 28.2433 37.6016 28.0986 37.7147C27.954 37.8278 27.7757 37.8894 27.5921 37.8897C27.5244 37.8897 27.4569 37.8814 27.3912 37.8649L23.098 36.7914C22.9976 36.7666 22.9029 36.7229 22.8188 36.6626L20.1041 34.7236C19.9371 34.5926 19.8272 34.4022 19.7971 34.1921C19.7671 33.982 19.8192 33.7684 19.9427 33.5958C20.0662 33.4232 20.2515 33.3049 20.46 33.2655C20.6686 33.2261 20.8843 33.2686 21.0622 33.3843L23.6492 35.2326L27.795 36.267C28.0071 36.32 28.1893 36.4551 28.3018 36.6425C28.4142 36.8299 28.4476 37.0543 28.3947 37.2663L28.3905 37.2653Z" fill="#31C5D9"/>
</g>
<defs>
<clipPath id="clip0_663_100">
<rect width="26.375" height="26.375" fill="white" transform="translate(14.8125 14.8125)"/>
</clipPath>
</defs>
</svg>
