<svg width="56" height="56" viewBox="0 0 56 56" fill="none" xmlns="http://www.w3.org/2000/svg">
<rect width="56" height="56" rx="28" fill="#31C5D9" fill-opacity="0.2"/>
<g clip-path="url(#clip0_663_77)">
<path d="M19.6263 19.0412L21.8756 20.6722M19.6263 36.9588L21.8756 35.3267M36.3749 19.0412L34.1256 20.6722M36.3749 36.9588L34.1256 35.3267M14.8756 17.5C14.8756 17.8447 14.9435 18.1861 15.0754 18.5045C15.2073 18.823 15.4007 19.1124 15.6444 19.3562C15.8882 19.5999 16.1776 19.7933 16.496 19.9252C16.8145 20.0571 17.1559 20.125 17.5006 20.125C17.8453 20.125 18.1866 20.0571 18.5051 19.9252C18.8236 19.7933 19.113 19.5999 19.3567 19.3562C19.6005 19.1124 19.7938 18.823 19.9258 18.5045C20.0577 18.1861 20.1256 17.8447 20.1256 17.5C20.1256 16.8038 19.849 16.1361 19.3567 15.6438C18.8645 15.1516 18.1968 14.875 17.5006 14.875C16.8044 14.875 16.1367 15.1516 15.6444 15.6438C15.1521 16.1361 14.8756 16.8038 14.8756 17.5ZM14.8756 38.5C14.8682 38.8493 14.9307 39.1966 15.0592 39.5214C15.1878 39.8463 15.38 40.1422 15.6244 40.3918C15.8688 40.6415 16.1606 40.8398 16.4827 40.9752C16.8048 41.1106 17.1506 41.1803 17.5 41.1803C17.8494 41.1803 18.1952 41.1106 18.5173 40.9752C18.8394 40.8398 19.1312 40.6415 19.3756 40.3918C19.62 40.1422 19.8122 39.8463 19.9408 39.5214C20.0693 39.1966 20.1318 38.8493 20.1244 38.5C20.1099 37.8135 19.8271 37.1601 19.3365 36.6797C18.8459 36.1994 18.1866 35.9303 17.5 35.9303C16.8134 35.9303 16.1541 36.1994 15.6635 36.6797C15.1729 37.1601 14.8901 37.8135 14.8756 38.5ZM35.8756 17.5C35.8756 18.1962 36.1521 18.8639 36.6444 19.3562C37.1367 19.8484 37.8044 20.125 38.5006 20.125C39.1968 20.125 39.8645 19.8484 40.3567 19.3562C40.849 18.8639 41.1256 18.1962 41.1256 17.5C41.1256 16.8038 40.849 16.1361 40.3567 15.6438C39.8645 15.1516 39.1968 14.875 38.5006 14.875C37.8044 14.875 37.1367 15.1516 36.6444 15.6438C36.1521 16.1361 35.8756 16.8038 35.8756 17.5ZM35.8756 38.5C35.8756 39.1962 36.1521 39.8639 36.6444 40.3562C37.1367 40.8484 37.8044 41.125 38.5006 41.125C39.1968 41.125 39.8645 40.8484 40.3567 40.3562C40.849 39.8639 41.1256 39.1962 41.1256 38.5C41.1256 37.8038 40.849 37.1361 40.3567 36.6438C39.8645 36.1516 39.1968 35.875 38.5006 35.875C37.8044 35.875 37.1367 36.1516 36.6444 36.6438C36.1521 37.1361 35.8756 37.8038 35.8756 38.5ZM24.9381 23.1875C24.9381 23.9997 25.2607 24.7787 25.8351 25.353C26.4094 25.9273 27.1884 26.25 28.0006 26.25C28.8128 26.25 29.5918 25.9273 30.1661 25.353C30.7404 24.7787 31.0631 23.9997 31.0631 23.1875C31.0631 22.3753 30.7404 21.5963 30.1661 21.022C29.5918 20.4477 28.8128 20.125 28.0006 20.125C27.1884 20.125 26.4094 20.4477 25.8351 21.022C25.2607 21.5963 24.9381 22.3753 24.9381 23.1875ZM22.7506 32.375C22.7506 30.9826 23.3037 29.6473 24.2883 28.6627C25.2728 27.6781 26.6082 27.125 28.0006 27.125C29.393 27.125 30.7283 27.6781 31.7129 28.6627C32.6975 29.6473 33.2506 30.9826 33.2506 32.375H22.7506Z" stroke="#31C5D9" stroke-width="1.90909" stroke-linecap="round" stroke-linejoin="round"/>
</g>
<defs>
<clipPath id="clip0_663_77">
<rect width="28" height="28" fill="white" transform="translate(14 14)"/>
</clipPath>
</defs>
</svg>
