<svg width="56" height="56" viewBox="0 0 56 56" fill="none" xmlns="http://www.w3.org/2000/svg">
<rect width="56" height="56" rx="28" fill="#31C5D9" fill-opacity="0.2"/>
<path d="M38.6644 34.4531C37.7959 33.5781 35.6927 32.3011 34.6722 31.7865C33.3433 31.1172 33.2339 31.0625 32.1894 31.8385C31.4927 32.3564 31.0295 32.819 30.2141 32.6451C29.3987 32.4712 27.6268 31.4907 26.0753 29.9441C24.5238 28.3975 23.4864 26.5743 23.312 25.7616C23.1375 24.949 23.6078 24.4912 24.1208 23.7929C24.8438 22.8085 24.7891 22.6444 24.1711 21.3155C23.6893 20.2819 22.3752 18.1983 21.4969 17.3343C20.5573 16.4062 20.5573 16.5703 19.952 16.8218C19.4591 17.0292 18.9862 17.2812 18.5394 17.5749C17.6644 18.1562 17.1788 18.6391 16.8391 19.3648C16.4995 20.0905 16.347 21.7918 18.1008 24.9779C19.8546 28.164 21.0851 29.7932 23.6319 32.3329C26.1787 34.8725 28.137 36.2381 30.9999 37.8437C34.5415 39.8272 35.8999 39.4406 36.6278 39.1015C37.3557 38.7625 37.8408 38.2812 38.4232 37.4062C38.7176 36.9601 38.9702 36.4878 39.1779 35.9953C39.43 35.3921 39.5941 35.3921 38.6644 34.4531Z" stroke="#31C5D9" stroke-width="1.90909" stroke-miterlimit="10"/>
</svg>
