<svg width="56" height="56" viewBox="0 0 56 56" fill="none" xmlns="http://www.w3.org/2000/svg">
<g clip-path="url(#clip0_663_190)">
<path fill-rule="evenodd" clip-rule="evenodd" d="M30.837 9.53834C29.4793 8.8277 27.6401 8.81755 26.2703 9.52616C21.0237 12.2469 16.2648 15.3636 12.0947 18.8214C11.4493 19.3554 10.992 20.133 11.0001 21.0467C11.0082 21.9584 11.4736 22.7238 12.115 23.2497C16.2507 26.6425 21.0136 29.7632 26.163 32.4617C27.5227 33.1723 29.3599 33.1824 30.7297 32.4738C35.9763 29.7531 40.7352 26.6364 44.9053 23.1786C45.5507 22.6446 46.008 21.867 45.9999 20.9533C45.9918 20.0416 45.5244 19.2762 44.885 18.7503C40.7493 15.3575 35.9864 12.2368 30.837 9.53834ZM27.6603 12.2327C27.9395 12.1082 28.2417 12.0443 28.5472 12.0454C28.8527 12.0464 29.1545 12.1123 29.4328 12.2388C34.3475 14.8133 38.8757 17.7757 42.799 20.9736C38.8534 24.2243 34.3373 27.1765 29.3377 29.7673C28.8521 30.0191 28.0569 30.017 27.5672 29.7612C22.6525 27.1867 18.1243 24.2243 14.199 21.0264C18.1466 17.7757 22.6627 14.8235 27.6623 12.2327" fill="#31C5D9"/>
<path d="M46.7673 28.7105C46.9828 29.0504 47.0522 29.4606 46.9605 29.8509C46.8687 30.2412 46.6231 30.5797 46.2778 30.7919L33.7707 38.4747C32.073 39.5184 29.9676 40 27.9319 40C25.8962 40 23.7909 39.5164 22.0931 38.4767L9.72327 30.8806C9.37755 30.6684 9.13165 30.3298 9.03967 29.9393C8.94768 29.5488 9.01715 29.1383 9.23278 28.7982C9.44842 28.458 9.79256 28.2161 10.1895 28.1256C10.5864 28.0351 11.0037 28.1035 11.3494 28.3156L23.7192 35.9118C24.8333 36.5968 26.3468 36.9777 27.9319 36.9777C29.515 36.9777 31.0285 36.5948 32.1426 35.9098L44.6517 28.229C44.9972 28.017 45.4141 27.9486 45.8108 28.0389C46.2075 28.1292 46.5515 28.3708 46.7673 28.7105Z" fill="#31C5D9"/>
<path d="M46.7673 36.6843C46.9828 37.0121 47.0522 37.4077 46.9605 37.7842C46.8687 38.1606 46.6231 38.4871 46.2778 38.6918L35.4479 45.1129C33.2811 46.3956 30.5736 47 27.9317 47C25.2938 47 22.5864 46.3975 20.4175 45.1149L9.7228 38.7793C9.37708 38.5744 9.13128 38.2476 9.03949 37.8707C8.94769 37.4939 9.01742 37.0978 9.23333 36.7698C9.44924 36.4417 9.79364 36.2085 10.1908 36.1213C10.5879 36.0342 11.0052 36.1004 11.351 36.3053L22.0457 42.6409C23.6288 43.5796 25.7465 44.0849 27.9337 44.0849C30.121 44.0849 32.2387 43.5796 33.8218 42.6409L44.6517 36.2217C44.8228 36.1202 45.0134 36.0516 45.2125 36.02C45.4116 35.9884 45.6153 35.9943 45.8119 36.0374C46.0086 36.0806 46.1944 36.1601 46.3587 36.2714C46.5229 36.3827 46.6625 36.5237 46.7693 36.6862" fill="#31C5D9"/>
</g>
<defs>
<clipPath id="clip0_663_190">
<rect width="56" height="56" fill="white"/>
</clipPath>
</defs>
</svg>
