<svg width="56" height="56" viewBox="0 0 56 56" fill="none" xmlns="http://www.w3.org/2000/svg">
<g clip-path="url(#clip0_663_220)">
<path d="M27.9993 43.9189H50.2851M27.9993 43.9189C27.9993 44.5461 27.8758 45.1672 27.6358 45.7466C27.3958 46.3261 27.044 46.8526 26.6005 47.2961C26.157 47.7396 25.6305 48.0914 25.051 48.3314C24.4716 48.5714 23.8505 48.6949 23.2233 48.6949C22.5961 48.6949 21.9751 48.5714 21.3956 48.3314C20.8162 48.0914 20.2897 47.7396 19.8462 47.2961C19.4027 46.8526 19.0509 46.3261 18.8109 45.7466C18.5709 45.1672 18.4473 44.5461 18.4473 43.9189C18.4473 43.2917 18.5709 42.6707 18.8109 42.0912C19.0509 41.5118 19.4027 40.9853 19.8462 40.5418C20.2897 40.0983 20.8162 39.7465 21.3956 39.5065C21.9751 39.2665 22.5961 39.1429 23.2233 39.1429C23.8505 39.1429 24.4716 39.2665 25.051 39.5065C25.6305 39.7465 26.157 40.0983 26.6005 40.5418C27.044 40.9853 27.3958 41.5118 27.6358 42.0912C27.8758 42.6707 27.9993 43.2917 27.9993 43.9189ZM50.2851 43.9189L43.9182 37.5521M50.2851 43.9189L43.9182 50.2858M15.2656 10.4904C15.2656 11.757 15.7688 12.9718 16.6645 13.8675C17.5602 14.7632 18.775 15.2664 20.0416 15.2664C21.3083 15.2664 22.5231 14.7632 23.4188 13.8675C24.3144 12.9718 24.8176 11.757 24.8176 10.4904C24.8176 9.22368 24.3144 8.00889 23.4188 7.11321C22.5231 6.21754 21.3083 5.71436 20.0416 5.71436C18.775 5.71436 17.5602 6.21754 16.6645 7.11321C15.7688 8.00889 15.2656 9.22368 15.2656 10.4904ZM27.9993 26.4092C27.9993 27.6759 28.5025 28.8907 29.3982 29.7864C30.2939 30.682 31.5087 31.1852 32.7753 31.1852C34.042 31.1852 35.2568 30.682 36.1525 29.7864C37.0482 28.8907 37.5513 27.6759 37.5513 26.4092C37.5513 25.1425 37.0482 23.9277 36.1525 23.0321C35.2568 22.1364 34.042 21.6332 32.7753 21.6332C31.5087 21.6332 30.2939 22.1364 29.3982 23.0321C28.5025 23.9277 27.9993 25.1425 27.9993 26.4092Z" stroke="#31C5D9" stroke-width="3" stroke-linecap="round" stroke-linejoin="round"/>
<path d="M27.9996 26.4091H14.4704C12.1785 26.4544 9.99575 27.3968 8.39091 29.0337C6.78607 30.6706 5.88713 32.8716 5.88713 35.1639C5.88713 37.4563 6.78607 39.6573 8.39091 41.2942C9.99575 42.9311 12.1785 43.8734 14.4704 43.9188H18.4476M37.5516 26.4091H42.3276C44.4386 26.4091 46.4631 25.5705 47.9557 24.0778C49.4484 22.5851 50.287 20.5606 50.287 18.4497C50.287 16.3387 49.4484 14.3142 47.9557 12.8215C46.4631 11.3288 44.4386 10.4902 42.3276 10.4902H24.811M15.2659 10.4902H5.71387" stroke="#31C5D9" stroke-width="3" stroke-linecap="round" stroke-linejoin="round"/>
</g>
<defs>
<clipPath id="clip0_663_220">
<rect width="48" height="48" fill="white" transform="translate(4 4)"/>
</clipPath>
</defs>
</svg>
