<svg width="56" height="56" viewBox="0 0 56 56" fill="none" xmlns="http://www.w3.org/2000/svg">
<rect width="56" height="56" rx="28" fill="#31C5D9" fill-opacity="0.2"/>
<g clip-path="url(#clip0_663_69)">
<path d="M40.8222 13.9997C40.68 14.0173 40.5427 14.063 40.4184 14.1343L14.5722 28.1343C14.389 28.2355 14.2396 28.3884 14.1427 28.5739C14.0458 28.7594 14.0056 28.9694 14.0272 29.1776C14.0488 29.3858 14.1312 29.583 14.2641 29.7447C14.397 29.9064 14.5746 30.0253 14.7747 30.0868L21.6401 32.1394C21.8005 33.4091 22.5156 38.9079 22.6491 39.9805C22.7827 41.0488 23.5085 41.234 24.2311 40.2497C24.7201 39.5831 27.5954 35.5382 27.5965 35.5382L33.7221 41.6637C33.854 41.796 34.0183 41.8913 34.1987 41.9401C34.379 41.9888 34.569 41.9894 34.7496 41.9416C34.9302 41.8938 35.0951 41.7994 35.2278 41.6679C35.3604 41.5363 35.4562 41.3722 35.5054 41.192L41.967 15.3459C42.0139 15.1778 42.0188 15.0009 41.9814 14.8305C41.9439 14.6601 41.8652 14.5015 41.7522 14.3686C41.6392 14.2357 41.4953 14.1326 41.3332 14.0683C41.171 14.004 40.9956 13.9804 40.8222 13.9997ZM39.2757 17.1637L33.8567 38.8368L27.7656 32.7446L36.6157 20.4612L22.8516 30.2882L17.8374 28.8074L39.2736 17.1626L39.2757 17.1637Z" fill="#31C5D9"/>
</g>
<defs>
<clipPath id="clip0_663_69">
<rect width="28" height="28" fill="white" transform="translate(14 14)"/>
</clipPath>
</defs>
</svg>
